<?xml version="1.0" encoding="UTF-8"?><svg xmlns="http://www.w3.org/2000/svg" viewBox="0 0 578.69 193.03"><defs><style>.d{fill:#fff;}</style></defs><g id="a"/><g id="b"><g id="c"><g><g><path class="d" d="M10.25,151.31c3.22,0,5.64,.86,7.25,2.59,1.61,1.73,2.42,4.26,2.42,7.6v20.86c0,3.34-.81,5.87-2.42,7.6-1.61,1.73-4.03,2.59-7.25,2.59H0v-41.25H10.25Zm-3.77,35.35h3.65c1.06,0,1.88-.31,2.45-.94,.57-.63,.85-1.65,.85-3.06v-21.45c0-1.41-.29-2.43-.85-3.06-.57-.63-1.38-.94-2.45-.94h-3.65v29.46Z"/><path class="d" d="M40.01,168.69v5.89h-8.9v12.08h11.2v5.89H24.63v-41.25h17.68v5.89h-11.2v11.49h8.9Z"/><path class="d" d="M63.11,151.31v35.35h10.67v5.89h-17.15v-41.25h6.48Z"/><path class="d" d="M91.63,192.56l-1.12-7.48h-7.95l-1.12,7.48h-5.95l6.6-41.25h9.49l6.6,41.25h-6.54Zm-2-13.08l-3.12-20.86-3.12,20.86h6.25Z"/><path class="d" d="M130.28,182.66c0,3.34-.83,5.9-2.48,7.69s-4.05,2.68-7.19,2.68-5.54-.89-7.19-2.68-2.48-4.35-2.48-7.69v-21.45c0-3.34,.83-5.9,2.48-7.69,1.65-1.79,4.05-2.68,7.19-2.68s5.54,.89,7.19,2.68c1.65,1.79,2.48,4.35,2.48,7.69v4.01h-6.13v-4.42c0-2.71-1.12-4.06-3.36-4.06s-3.36,1.35-3.36,4.06v22.27c0,2.67,1.12,4.01,3.36,4.01s3.36-1.33,3.36-4.01v-5.89h6.13v5.48Z"/><path class="d" d="M136.82,153.55c1.69-1.81,4.12-2.71,7.31-2.71s5.62,.9,7.31,2.71c1.69,1.81,2.53,4.36,2.53,7.66v21.45c0,3.3-.85,5.85-2.53,7.66-1.69,1.81-4.12,2.71-7.31,2.71s-5.62-.9-7.31-2.71c-1.69-1.81-2.53-4.36-2.53-7.66v-21.45c0-3.3,.84-5.85,2.53-7.66Zm7.31,33.59c2.24,0,3.36-1.35,3.36-4.06v-22.27c0-2.71-1.12-4.06-3.36-4.06s-3.36,1.35-3.36,4.06v22.27c0,2.71,1.12,4.06,3.36,4.06Z"/><path class="d" d="M164.52,192.56h-5.83v-41.25h8.13l6.66,24.69v-24.69h5.77v41.25h-6.66l-8.07-29.88v29.88Z"/><path class="d" d="M202.64,151.31h9.02v41.25h-6.13v-29.58l-4.48,29.58h-6.13l-4.83-29.17v29.17h-5.66v-41.25h9.02l4.77,29.29,4.42-29.29Z"/><path class="d" d="M232.34,168.69v5.89h-8.9v12.08h11.2v5.89h-17.68v-41.25h17.68v5.89h-11.2v11.49h8.9Z"/><path class="d" d="M256.32,153.64c1.53,1.55,2.3,3.94,2.3,7.16v1.47c0,2.12-.34,3.87-1.03,5.24-.69,1.38-1.74,2.4-3.15,3.06,3.22,1.26,4.83,4.2,4.83,8.84v3.36c0,3.18-.84,5.61-2.5,7.28-1.67,1.67-4.12,2.5-7.34,2.5h-10.19v-41.25h9.78c3.34,0,5.77,.78,7.31,2.33Zm-10.61,14.47h2.53c1.3,0,2.27-.33,2.92-1,.65-.67,.97-1.79,.97-3.36v-2.3c0-1.49-.27-2.57-.8-3.24-.53-.67-1.37-1-2.5-1h-3.12v10.9Zm0,18.56h3.71c1.14,0,1.98-.3,2.53-.91,.55-.61,.83-1.66,.83-3.15v-3.6c0-1.89-.32-3.19-.97-3.92-.65-.73-1.72-1.09-3.21-1.09h-2.89v12.67Z"/><path class="d" d="M265.75,153.55c1.69-1.81,4.12-2.71,7.31-2.71s5.62,.9,7.31,2.71c1.69,1.81,2.53,4.36,2.53,7.66v21.45c0,3.3-.85,5.85-2.53,7.66-1.69,1.81-4.12,2.71-7.31,2.71s-5.62-.9-7.31-2.71c-1.69-1.81-2.53-4.36-2.53-7.66v-21.45c0-3.3,.84-5.85,2.53-7.66Zm7.31,33.59c2.24,0,3.36-1.35,3.36-4.06v-22.27c0-2.71-1.12-4.06-3.36-4.06s-3.36,1.35-3.36,4.06v22.27c0,2.71,1.12,4.06,3.36,4.06Z"/><path class="d" d="M294.15,151.31v35.35h10.67v5.89h-17.15v-41.25h6.48Z"/><path class="d" d="M324.44,151.31v35.35h10.67v5.89h-17.15v-41.25h6.48Z"/><path class="d" d="M345,151.31v41.25h-6.48v-41.25h6.48Z"/><path class="d" d="M367.39,153.64c1.53,1.55,2.3,3.94,2.3,7.16v1.47c0,2.12-.34,3.87-1.03,5.24-.69,1.38-1.74,2.4-3.15,3.06,3.22,1.26,4.83,4.2,4.83,8.84v3.36c0,3.18-.84,5.61-2.5,7.28-1.67,1.67-4.12,2.5-7.34,2.5h-10.19v-41.25h9.78c3.34,0,5.77,.78,7.31,2.33Zm-10.61,14.47h2.53c1.3,0,2.27-.33,2.92-1,.65-.67,.97-1.79,.97-3.36v-2.3c0-1.49-.27-2.57-.8-3.24-.53-.67-1.37-1-2.5-1h-3.12v10.9Zm0,18.56h3.71c1.14,0,1.98-.3,2.53-.91,.55-.61,.83-1.66,.83-3.15v-3.6c0-1.89-.32-3.19-.97-3.92-.65-.73-1.72-1.09-3.21-1.09h-2.89v12.67Z"/><path class="d" d="M390.19,168.69v5.89h-8.9v12.08h11.2v5.89h-17.68v-41.25h17.68v5.89h-11.2v11.49h8.9Z"/><path class="d" d="M410.17,190.67c-.08-.59-.12-1.65-.12-3.18v-6.48c0-1.89-.33-3.23-1-4.04-.67-.8-1.75-1.21-3.24-1.21h-2.24v16.79h-6.48v-41.25h9.78c3.34,0,5.77,.78,7.31,2.33,1.53,1.55,2.3,3.94,2.3,7.16v3.24c0,4.24-1.41,7.03-4.24,8.37,1.53,.63,2.63,1.68,3.3,3.15s1,3.35,1,5.63v6.36c0,1.18,.04,2.13,.12,2.86,.08,.73,.27,1.44,.59,2.15h-6.6c-.24-.67-.39-1.3-.47-1.89Zm-6.6-20.8h2.53c1.3,0,2.27-.33,2.92-1,.65-.67,.97-1.79,.97-3.36v-4.06c0-1.49-.27-2.57-.8-3.24-.53-.67-1.37-1-2.5-1h-3.12v12.67Z"/><path class="d" d="M439.51,151.31v5.89h-6.78v35.35h-6.48v-35.35h-6.78v-5.89h20.03Z"/><path class="d" d="M455.13,192.56l-1.12-7.48h-7.95l-1.12,7.48h-5.95l6.6-41.25h9.49l6.6,41.25h-6.54Zm-2-13.08l-3.12-20.86-3.12,20.86h6.25Z"/><path class="d" d="M475.52,151.31c3.22,0,5.64,.86,7.25,2.59,1.61,1.73,2.42,4.26,2.42,7.6v20.86c0,3.34-.81,5.87-2.42,7.6-1.61,1.73-4.03,2.59-7.25,2.59h-10.25v-41.25h10.25Zm-3.77,35.35h3.65c1.06,0,1.88-.31,2.45-.94,.57-.63,.85-1.65,.85-3.06v-21.45c0-1.41-.29-2.43-.85-3.06-.57-.63-1.38-.94-2.45-.94h-3.65v29.46Z"/><path class="d" d="M491.9,153.55c1.69-1.81,4.12-2.71,7.31-2.71s5.62,.9,7.31,2.71c1.69,1.81,2.53,4.36,2.53,7.66v21.45c0,3.3-.85,5.85-2.53,7.66-1.69,1.81-4.12,2.71-7.31,2.71s-5.62-.9-7.31-2.71c-1.69-1.81-2.53-4.36-2.53-7.66v-21.45c0-3.3,.84-5.85,2.53-7.66Zm7.31,33.59c2.24,0,3.36-1.35,3.36-4.06v-22.27c0-2.71-1.12-4.06-3.36-4.06s-3.36,1.35-3.36,4.06v22.27c0,2.71,1.12,4.06,3.36,4.06Z"/><path class="d" d="M526.9,190.67c-.08-.59-.12-1.65-.12-3.18v-6.48c0-1.89-.33-3.23-1-4.04-.67-.8-1.75-1.21-3.24-1.21h-2.24v16.79h-6.48v-41.25h9.78c3.34,0,5.77,.78,7.31,2.33,1.53,1.55,2.3,3.94,2.3,7.16v3.24c0,4.24-1.41,7.03-4.24,8.37,1.53,.63,2.63,1.68,3.3,3.15s1,3.35,1,5.63v6.36c0,1.18,.04,2.13,.12,2.86,.08,.73,.27,1.44,.59,2.15h-6.6c-.24-.67-.39-1.3-.47-1.89Zm-6.6-20.8h2.53c1.3,0,2.27-.33,2.92-1,.65-.67,.97-1.79,.97-3.36v-4.06c0-1.49-.27-2.57-.8-3.24-.53-.67-1.37-1-2.5-1h-3.12v12.67Z"/><path class="d" d="M553.47,168.69v5.89h-8.9v12.08h11.2v5.89h-17.68v-41.25h17.68v5.89h-11.2v11.49h8.9Z"/><path class="d" d="M561.96,153.52c1.61-1.79,3.99-2.68,7.13-2.68s5.52,.89,7.13,2.68c1.61,1.79,2.42,4.35,2.42,7.69v1.3h-6.13v-1.71c0-1.41-.28-2.45-.83-3.09-.55-.65-1.35-.97-2.42-.97s-1.87,.32-2.42,.97c-.55,.65-.82,1.68-.82,3.09,0,1.73,.46,3.24,1.38,4.54,.92,1.3,2.31,2.77,4.15,4.42,1.53,1.41,2.77,2.66,3.71,3.74,.94,1.08,1.75,2.39,2.42,3.92,.67,1.53,1,3.28,1,5.24,0,3.34-.83,5.9-2.48,7.69-1.65,1.79-4.05,2.68-7.19,2.68s-5.54-.89-7.19-2.68-2.48-4.35-2.48-7.69v-2.53h6.13v2.95c0,2.67,1.12,4.01,3.36,4.01s3.36-1.33,3.36-4.01c0-1.73-.46-3.24-1.38-4.54-.92-1.3-2.31-2.77-4.15-4.42-1.53-1.41-2.77-2.66-3.71-3.74-.94-1.08-1.75-2.39-2.42-3.92s-1-3.28-1-5.24c0-3.34,.8-5.9,2.42-7.69Z"/></g><g><g><path class="d" d="M21.93,53.53c-4.18-4.13-6.27-10.2-6.27-18.2v-10.78c0-8.05,2.08-14.16,6.23-18.32C26.05,2.08,32.08,0,39.98,0s13.96,1.91,18.01,5.74c4.05,3.82,6.08,9.71,6.08,17.66v.3h-21.72v-2.98c0-1.07-.22-1.87-.65-2.41-.43-.54-1.01-.8-1.72-.8-.66,0-1.21,.28-1.64,.84-.43,.56-.65,1.38-.65,2.45v18.28c0,3.11,.99,4.66,2.98,4.66,1.73,0,2.68-1.1,2.83-3.29v-.23h-3.29v-13.08h23.94v4.97c0,6.83-.85,12.26-2.56,16.29-1.71,4.03-4.31,6.92-7.8,8.68-3.49,1.76-8.07,2.64-13.73,2.64-7.9,0-13.94-2.06-18.12-6.19Z"/><path class="d" d="M121.04,58.27h-22.71l-.84-6.96h-8.03l-.92,6.96h-22.64L78.45,1.38h29.9l12.69,56.89Zm-28.22-33.65l-1.45,11.24h4.13l-1.38-11.24-.61-5.28h-.15l-.54,5.28Z"/><path class="d" d="M146.12,58.27h-20.65V1.38h21.64l6.35,18.97,1.15,3.75h.08l-.15-4.21V1.38h20.65V58.27h-21.64l-6.27-18.51-1.15-3.75h-.08l.08,4.21v18.05Z"/><path class="d" d="M234.91,58.27h-22.71l-.84-6.96h-8.03l-.92,6.96h-22.64L192.31,1.38h29.9l12.69,56.89Zm-28.22-33.65l-1.45,11.24h4.13l-1.38-11.24-.61-5.28h-.15l-.54,5.28Z"/></g><g><path class="d" d="M252.52,55.31c-2.49-2.46-3.73-5.66-3.73-9.61V1.39h8.6V45.69c0,1.62,.45,2.9,1.34,3.81,.89,.92,2.04,1.38,3.45,1.38s2.56-.46,3.45-1.38c.89-.92,1.34-2.19,1.34-3.81V1.39h8.44V45.69c0,3.95-1.22,7.15-3.65,9.61-2.43,2.46-5.63,3.69-9.57,3.69s-7.17-1.23-9.66-3.69Z"/><path class="d" d="M283.68,1.39h9.49l10.95,38.13V1.39h8.44V58.19h-9.09l-11.36-36.35V58.19h-8.44V1.39Z"/><path class="d" d="M113.17,122.58h-9.25l-1.87,12.58h-8.6l9.41-56.8h11.52l9.41,56.8h-8.76l-1.87-12.58Zm-1.14-8.28l-3.49-23.77-3.49,23.77h6.98Z"/><path class="d" d="M145.06,78.36h8.6v48.68h15.34v8.11h-23.94v-56.8Z"/><path class="d" d="M192.6,122.58h-9.25l-1.87,12.58h-8.6l9.41-56.8h11.52l9.41,56.8h-8.76l-1.87-12.58Zm-1.14-8.28l-3.49-23.77-3.49,23.77h6.98Z"/></g><g><path class="d" d="M343.38,58.27L330.99,1.38h22.64l3.98,35.48,.46,4.28h.15l.46-4.28,3.98-35.48h22.71l-12.54,56.89h-29.44Z"/><path class="d" d="M411.82,58.27h-22.02V1.38h22.02V58.27Z"/><path class="d" d="M471.47,58.27h-22.71l-.84-6.96h-8.03l-.92,6.96h-22.64L428.88,1.38h29.9l12.69,56.89Zm-28.22-33.65l-1.45,11.24h4.13l-1.38-11.24-.61-5.28h-.15l-.54,5.28Z"/><path class="d" d="M490.59,1.38h22.02V38.39c0,7.29-1.93,12.67-5.77,16.14-3.85,3.47-9.52,5.2-17.01,5.2-5.4,0-10.55-.56-15.45-1.68l.54-17.44c3.92,.71,7.16,1.07,9.71,1.07,2.14,0,3.67-.38,4.59-1.15,.92-.77,1.38-2.22,1.38-4.36V18.05h-14.45V1.45h14.45v-.08Z"/><path class="d" d="M558.34,58.27h-39.61V1.38h38.85V18.28h-16.82v3.82h14.99v15.07h-14.99v3.82h17.59v17.28Z"/></g><g><path class="d" d="M244.74,134.86h-22.02v-56.89h38.16v17.28h-16.14v4.36h14.22v16.82h-14.22v18.43Z"/><path class="d" d="M288.09,134.86h-22.02v-56.89h22.02v56.89Z"/><path class="d" d="M315.32,134.86h-20.65v-56.89h21.64l6.35,18.97,1.15,3.75h.08l-.15-4.21v-18.51h20.65v56.89h-21.64l-6.27-18.51-1.15-3.75h-.08l.08,4.21v18.05Z"/><path class="d" d="M404.1,134.86h-22.71l-.84-6.96h-8.03l-.92,6.96h-22.64l12.54-56.89h29.9l12.69,56.89Zm-28.22-33.65l-1.45,11.24h4.13l-1.38-11.24-.61-5.28h-.15l-.54,5.28Z"/><path class="d" d="M445.16,134.86h-36.63v-56.89h22.02v39.15h14.61v17.74Z"/></g></g></g></g></g></svg>