<?xml version="1.0" encoding="UTF-8"?><svg xmlns="http://www.w3.org/2000/svg" viewBox="0 0 457.9 157.52"><defs><style>.f{fill:#fff;}</style></defs><g id="a"/><g id="b"><g id="c"><g><g id="d"><path class="f" d="M161.1,80.21h10.58c.72,0,1.3-.58,1.3-1.3v-5.2c0-.72-.58-1.3-1.3-1.3h-10.58c-.72,0-1.3,.58-1.3,1.3v5.2c0,.72,.58,1.3,1.3,1.3Zm1.3-5.2h7.98v2.6h-7.98v-2.6Z"/><path class="f" d="M144.58,80.21h10.58c.72,0,1.3-.58,1.3-1.3v-5.2c0-.72-.58-1.3-1.3-1.3h-10.58c-.72,0-1.3,.58-1.3,1.3v5.2c0,.72,.58,1.3,1.3,1.3Zm1.3-5.2h7.98v2.6h-7.98v-2.6Z"/><path class="f" d="M177.61,80.21h10.58c.72,0,1.3-.58,1.3-1.3v-5.2c0-.72-.58-1.3-1.3-1.3h-10.58c-.72,0-1.3,.58-1.3,1.3v5.2c0,.72,.58,1.3,1.3,1.3Zm1.3-5.2h7.98v2.6h-7.98v-2.6Z"/><path class="f" d="M161.1,91.35h10.58c.72,0,1.3-.58,1.3-1.3v-5.01c0-.72-.58-1.3-1.3-1.3h-10.58c-.72,0-1.3,.58-1.3,1.3v5.01c0,.72,.58,1.3,1.3,1.3Zm1.3-5.01h7.98v2.41h-7.98v-2.41Z"/><path class="f" d="M144.58,91.35h10.58c.72,0,1.3-.58,1.3-1.3v-5.01c0-.72-.58-1.3-1.3-1.3h-10.58c-.72,0-1.3,.58-1.3,1.3v5.01c0,.72,.58,1.3,1.3,1.3Zm1.3-5.01h7.98v2.41h-7.98v-2.41Z"/><path class="f" d="M177.61,91.35h10.58c.72,0,1.3-.58,1.3-1.3v-5.01c0-.72-.58-1.3-1.3-1.3h-10.58c-.72,0-1.3,.58-1.3,1.3v5.01c0,.72,.58,1.3,1.3,1.3Zm1.3-5.01h7.98v2.41h-7.98v-2.41Z"/><path class="f" d="M161.1,102.48h10.58c.72,0,1.3-.58,1.3-1.3v-5.01c0-.72-.58-1.3-1.3-1.3h-10.58c-.72,0-1.3,.58-1.3,1.3v5.01c0,.72,.58,1.3,1.3,1.3Zm1.3-5.01h7.98v2.41h-7.98v-2.41Z"/><path class="f" d="M144.58,102.48h10.58c.72,0,1.3-.58,1.3-1.3v-5.01c0-.72-.58-1.3-1.3-1.3h-10.58c-.72,0-1.3,.58-1.3,1.3v5.01c0,.72,.58,1.3,1.3,1.3Zm1.3-5.01h7.98v2.41h-7.98v-2.41Z"/><path class="f" d="M177.61,102.48h10.58c.72,0,1.3-.58,1.3-1.3v-5.01c0-.72-.58-1.3-1.3-1.3h-10.58c-.72,0-1.3,.58-1.3,1.3v5.01c0,.72,.58,1.3,1.3,1.3Zm1.3-5.01h7.98v2.41h-7.98v-2.41Z"/><path class="f" d="M144.58,113.8h10.58c.72,0,1.3-.58,1.3-1.3v-5.2c0-.72-.58-1.3-1.3-1.3h-10.58c-.72,0-1.3,.58-1.3,1.3v5.2c0,.72,.58,1.3,1.3,1.3Zm1.3-5.2h7.98v2.6h-7.98v-2.6Z"/><path class="f" d="M177.61,113.8h10.58c.72,0,1.3-.58,1.3-1.3v-5.2c0-.72-.58-1.3-1.3-1.3h-10.58c-.72,0-1.3,.58-1.3,1.3v5.2c0,.72,.58,1.3,1.3,1.3Zm1.3-5.2h7.98v2.6h-7.98v-2.6Z"/><path class="f" d="M201.16,66.33l-9.23-16.62c-.23-.41-.66-.67-1.14-.67h-48.81c-.47,0-.91,.26-1.14,.67l-9.28,16.7c-.22,.4-.22,.89,.02,1.29s.66,.64,1.12,.64h4.08v56.23c0,.72,.58,1.3,1.3,1.3h56.6c.72,0,1.3-.58,1.3-1.3v-56.23h4.09c.72,0,1.3-.58,1.3-1.3,0-.26-.08-.51-.21-.71Zm-61.78,53.79h20.41v3.15h-20.41v-3.15Zm23.01,2.97v-14.48h7.98v14.48h-7.98Zm10.58,.19v-3.15h20.41v3.15h-20.41Zm20.41-5.75h-20.41v-10.21c0-.72-.58-1.3-1.3-1.3h-10.58c-.72,0-1.3,.58-1.3,1.3v10.21h-20.41v-49.18h54v49.18Zm1.3-51.78h-59.78l7.84-14.1h47.28l7.84,14.1h-3.17Z"/><path class="f" d="M153.21,53.97c-.72,0-1.3,.58-1.3,1.3v1.92h-2.6v-1.92c0-.72-.58-1.3-1.3-1.3s-1.3,.58-1.3,1.3v6.83c0,.72,.58,1.3,1.3,1.3s1.3-.58,1.3-1.3v-2.31h2.6v2.31c0,.72,.58,1.3,1.3,1.3s1.3-.58,1.3-1.3v-6.83c0-.72-.58-1.3-1.3-1.3Z"/><path class="f" d="M170.03,53.95h-3.94c-.72,0-1.3,.58-1.3,1.3s.58,1.3,1.3,1.3h.67v5.55c0,.72,.58,1.3,1.3,1.3s1.3-.58,1.3-1.3v-5.55h.67c.72,0,1.3-.58,1.3-1.3s-.58-1.3-1.3-1.3Z"/><path class="f" d="M177.04,56.55c.72,0,1.3-.58,1.3-1.3s-.58-1.3-1.3-1.3h-2.56c-.07,0-.15,0-.22,.02-.71,0-1.29,.58-1.29,1.3v6.83c0,.72,.58,1.3,1.3,1.3,.03,0,.07,0,.1,0,.03,0,.07,0,.1,0h2.56c.72,0,1.3-.58,1.3-1.3s-.58-1.3-1.3-1.3h-1.46v-1.01h1.46c.72,0,1.3-.58,1.3-1.3s-.58-1.3-1.3-1.3h-1.46v-.64h1.46Z"/><path class="f" d="M184.79,60.8h-1.86v-5.53c0-.72-.58-1.3-1.3-1.3s-1.3,.58-1.3,1.3v6.83c0,.72,.58,1.3,1.3,1.3,.03,0,.07,0,.1,0,.03,0,.07,0,.1,0h2.95c.72,0,1.3-.58,1.3-1.3s-.58-1.3-1.3-1.3Z"/><path class="f" d="M160.14,53.9c-2.31,0-4.19,2.13-4.19,4.75s1.88,4.75,4.19,4.75,4.19-2.13,4.19-4.75-1.88-4.75-4.19-4.75Zm0,6.91c-.86,0-1.59-.99-1.59-2.15s.73-2.15,1.59-2.15,1.59,.99,1.59,2.15-.73,2.15-1.59,2.15Z"/></g><g id="e"><path class="f" d="M72.15,67.38s.03-.02,.04-.04c1.39-1.39,3.29-4.87,4.41-8.08,1.1-3.17,1.95-7.42-.31-9.67-.94-.94-2.32-1.42-4.1-1.42-4.78,0-11.72,3.58-13.66,5.52-.01,.01-.03,.03-.04,.04l-6.18,6.77-11.01-1.14,1.13-1.13c1.66-1.66,1.66-4.37,0-6.03-1.66-1.66-4.37-1.66-6.03,0l-6.02,6.02-20.07-2.08c-.5-.05-.98,.22-1.2,.67l-2.51,5.21c-.14,.3-.16,.65-.03,.96,.12,.31,.37,.55,.68,.67l31.17,12.07-16.34,17.91-.91,.96-12.15-.7c-.34-.02-.67,.11-.91,.35l-3.41,3.41c-.27,.27-.4,.66-.33,1.04,.06,.38,.3,.71,.65,.88l9.7,4.81-2.85,4.41c-.31,.47-.24,1.09,.16,1.49l3.57,3.57c.23,.23,.54,.35,.84,.35,.22,0,.45-.06,.65-.19l4.4-2.86,4.81,9.7c.17,.34,.5,.59,.88,.65,.06,.01,.13,.02,.19,.02,.31,0,.62-.12,.84-.35l3.41-3.41c.24-.24,.37-.58,.35-.92l-.74-12.1,.93-.88,18.08-16.49,12.18,31.43c.12,.31,.36,.56,.67,.68,.14,.06,.29,.08,.44,.08,.18,0,.35-.04,.52-.12l5.21-2.51c.45-.22,.72-.7,.67-1.2l-2.08-20.08,6.02-6.02c1.66-1.66,1.66-4.37,0-6.03-1.66-1.66-4.37-1.66-6.03,0l-1.13,1.13-1.17-11.33,6.62-6.04Zm-34.06-13.49c.73-.73,1.92-.73,2.65,0,.73,.73,.73,1.92,0,2.65l-2.5,2.5-4.81-.5,4.65-4.65Zm-28.78,8.01l1.58-3.29,39.42,4.09-10.17,11.15-30.83-11.94Zm-1.76,36.28l1.85-1.85,10.15,.58-3.54,5.47-8.46-4.2Zm20.14,20.14l-4.19-8.46,5.43-3.52,.62,10.13-1.85,1.85Zm2.84-16.19h-.02l-1.08,1.04-12.85,8.33-2.21-2.21,8.28-12.79,1.15-1.22v-.02l29.79-32.63c.05-.05,.1-.1,.15-.16l6.49-7.11c1.64-1.61,7.91-4.81,11.95-4.81,1.12,0,1.93,.24,2.41,.72,1.05,1.05,.95,3.74-.26,7.2-1.1,3.15-2.83,6.16-3.82,7.16L30.53,102.12Zm38.98-16.81c.73-.73,1.92-.73,2.65,0,.73,.73,.73,1.92,0,2.65l-4.65,4.65-.5-4.81,2.5-2.5Zm-2.06,29.85l-3.29,1.58-12.04-31.09,11.22-10.23,4.12,39.74Z"/><path class="f" d="M53.05,71.25l-20.98,20.98c-.47,.47-.47,1.22,0,1.69,.23,.23,.54,.35,.84,.35s.61-.12,.84-.35l20.98-20.98c.47-.47,.47-1.22,0-1.69-.47-.47-1.22-.47-1.69,0Z"/><path class="f" d="M62.96,57.78c-.47-.47-1.22-.47-1.69,0-.23,.23-.35,.54-.35,.84s.12,.61,.35,.84l5.01,5.01c.23,.23,.54,.35,.84,.35s.61-.12,.84-.35c.23-.23,.35-.54,.35-.84s-.12-.61-.35-.84l-5.01-5.01Z"/><path class="f" d="M15.53,71.62c0-.31-.12-.61-.35-.84-.47-.47-1.22-.47-1.69,0L.35,83.92c-.23,.23-.35,.54-.35,.84s.12,.61,.35,.84c.23,.23,.54,.35,.84,.35s.61-.12,.84-.35l13.14-13.14c.23-.23,.35-.54,.35-.84Z"/><path class="f" d="M11.67,83.22c0,.31,.12,.61,.35,.84,.23,.23,.54,.35,.84,.35s.61-.12,.84-.35l6.54-6.54c.23-.23,.35-.54,.35-.84s-.12-.61-.35-.84c-.47-.47-1.22-.47-1.69,0l-6.54,6.54c-.23,.23-.35,.54-.35,.84Z"/><path class="f" d="M53.41,110.69l-13.14,13.14c-.23,.23-.35,.54-.35,.84s.12,.61,.35,.84c.23,.23,.54,.35,.84,.35s.61-.12,.84-.35l13.14-13.14c.23-.23,.35-.54,.35-.84s-.12-.61-.35-.84c-.47-.47-1.22-.47-1.69,0Z"/><path class="f" d="M43.49,113.85l6.54-6.54c.23-.23,.35-.54,.35-.84s-.12-.61-.35-.84c-.47-.47-1.22-.47-1.69,0l-6.54,6.54c-.23,.23-.35,.54-.35,.84s.12,.61,.35,.84c.23,.23,.54,.35,.84,.35s.61-.12,.84-.35Z"/></g><g><g><path class="f" d="M295.01,112.62c-.42,0-.81-.29-.92-.72-.46-1.88-1.71-3.13-3.44-4.42l-.82-.61c-2.97-2.24-5.54-4.17-9.02-5.57-.68-.27-1.5-.52-2.36-.77-3.28-.98-7.77-2.32-7.37-6.87,.18-2.12,.33-4.29,.47-6.38,.07-1.06,.14-2.13,.22-3.19l1.03-14.13c.04-.52,.49-.91,1.01-.87,.52,.04,.91,.49,.87,1.01l-1.03,14.13c-.08,1.06-.15,2.12-.22,3.18-.14,2.1-.29,4.28-.48,6.42-.24,2.81,2.23,3.77,6.03,4.9,.9,.27,1.76,.53,2.52,.83,3.72,1.49,6.51,3.59,9.46,5.81l.81,.61c1.77,1.33,3.5,2.92,4.14,5.48,.12,.51-.18,1.02-.69,1.14-.08,.02-.15,.03-.23,.03Z"/><path class="f" d="M274.89,85.11c-.32,0-.63-.16-.8-.45-1.39-2.26-1.96-3.92-1.99-3.99-.17-.49,.09-1.03,.59-1.2,.49-.17,1.03,.09,1.2,.59,0,.01,.54,1.54,1.81,3.61,.27,.44,.13,1.02-.31,1.3-.15,.09-.32,.14-.49,.14Z"/><path class="f" d="M284.96,94.56c-.15,0-.29-.03-.43-.11-2.94-1.52-5.55-3.58-7.77-6.15-.34-.39-.3-.99,.1-1.33,.39-.34,.99-.3,1.33,.1,2.06,2.38,4.49,4.3,7.21,5.71,.46,.24,.64,.81,.41,1.27-.17,.32-.5,.51-.84,.51Z"/><path class="f" d="M282.98,62.38h0c-.1,0-.2,0-.31,0-3.92-.15-4.72-3.05-5.51-5.86-.08-.28-.16-.57-.24-.86-.56-1.93-.25-3.82,.88-5.32,1.15-1.53,3.07-2.51,4.91-2.51,1.73,0,3.61,1.01,4.79,2.56,1.13,1.5,1.48,3.26,1,4.97-.15,.54-.28,1.07-.41,1.58-.66,2.68-1.35,5.44-5.1,5.44Zm-.27-12.68c-1.24,0-2.61,.71-3.4,1.76-.54,.72-1.07,1.93-.57,3.66,.09,.3,.17,.59,.25,.88,.82,2.96,1.33,4.39,3.76,4.48,.08,0,.16,0,.24,0,2.19,0,2.56-1.16,3.27-4.01,.13-.53,.26-1.07,.43-1.64,.43-1.52-.24-2.74-.69-3.32-.82-1.08-2.14-1.81-3.28-1.81Z"/><path class="f" d="M294.28,110.84c-.49,0-.91-.38-.94-.87-.05-.82-.1-2.16-.15-3.45-.05-1.28-.1-2.61-.15-3.4-.03-.51,.36-.95,.88-.98,.52-.03,.88,.73,.91,1.24,.05,.82,.19,1.78,.24,3.07,.05,1.28,.1,2.61,.15,3.41,.03,.51-.36,.95-.88,.98-.02,0-.04,0-.06,0Z"/><path class="f" d="M293.7,103c-.49,0-.91-.38-.94-.87l-.34-5.46c-.23-3.65-.64-13.44-.79-17.12l-.05-1.22c-.06-1.46-.22-5.68-.36-9.41-.08-2.22-.16-4.21-.2-5.28-.25-.04-.53-.07-.82-.1-1.6-.19-3.6-.42-4.44-1.78-.27-.44-.13-1.01,.31-1.28,.44-.27,1.03-.13,1.3,.31,.36,.59,1.92,.77,3.05,.9,.65,.08,1.26,.15,1.76,.29,.39,.11,.67,.45,.69,.85,.02,.51,.12,3.06,.23,6.02,.14,3.72,.29,7.94,.36,9.4l.05,1.22c.15,3.68,.57,13.45,.79,17.09l.34,5.46c.03,.51-.36,.95-.88,.99-.02,0-.04,0-.06,0Z"/><path class="f" d="M271.87,78.82c-.32,0-.69-.07-1.1-.24-1.2-.51-2.36-1.81-2.92-2.92-3.1-.03-6.62-.44-8.79-.69-.97-.11-1.8-.21-2.06-.21-1.37,0-2.49-1.59-3.68-3.28-.57-.8-1.51-2.15-1.92-2.28-.34-.08-.89-.07-1.47-.06-1.48,.02-3.31,.05-4.62-1.23-.72-.7-1.12-1.65-1.11-2.61,0-.72,.25-1.36,.67-1.75,1.38-1.3,4.63-.91,4.99-.86,3.38,.41,6.91,.35,10.32,.28h.41c1.64-.04,3.27-.37,4.99-.73,1.96-.4,3.99-.82,6.05-.74,2.02,.08,6.3,.73,8.04,2.65,.35,.39,.32,.98-.06,1.33-.39,.35-.98,.32-1.33-.06-1.15-1.27-4.62-1.95-6.72-2.03-1.82-.07-3.65,.31-5.59,.71-1.73,.36-3.51,.73-5.33,.76h-.41c-3.48,.07-7.07,.14-10.59-.29-1.27-.17-3.02-.05-3.46,.36-.11,.15-.2,.98,.47,1.63,.75,.73,2.04,.71,3.28,.69,.7-.01,1.35-.02,1.92,.11,1.08,.25,1.99,1.54,3.04,3.03,.59,.84,1.69,2.4,2.16,2.48,.35,0,1.01,.08,2.27,.22,2.42,.28,6.07,.71,9.19,.68h0c.42,0,.79,.28,.91,.68,.19,.66,1.19,1.99,2.13,2.39,.12,.05,.35,.13,.48,.06,.46-.24,1.03-.06,1.27,.4,.24,.46,.06,1.03-.4,1.27-.24,.13-.58,.24-1,.24Z"/><path class="f" d="M293.55,78.82c-.42,0-.75-.11-1-.24-.46-.24-.64-.81-.4-1.27,.24-.46,.81-.64,1.27-.4,.13,.07,.36,0,.48-.06,.94-.4,1.94-1.73,2.13-2.39,.12-.41,.5-.69,.92-.68,3.12,.03,6.77-.4,9.19-.68,1.25-.15,1.93-.22,2.28-.22,.45-.09,1.55-1.64,2.14-2.48,1.05-1.49,1.96-2.78,3.04-3.03,.55-.13,1.19-.16,1.88-.2,1.15-.06,2.46-.14,3.09-.66,.55-.45,1-1.31,1.11-1.72-.67-.31-2.58-.39-3.85-.22-4.16,.51-11.11,.31-15.71,.17-2.16-.06-3.86-.11-4.52-.07-.43,.03-.88,.08-1.31,.12-.36,.04-.72,.08-1.08,.11-.52,.04-.97-.35-1.02-.87-.04-.52,.35-.97,.86-1.02,.34-.03,.68-.07,1.03-.1,.45-.05,.92-.1,1.4-.13,.75-.05,2.41,0,4.7,.07,4.54,.14,11.41,.34,15.42-.15,.03,0,4.13-.51,5.55,.82,.21,.2,.46,.57,.44,1.18-.04,1.12-.97,2.57-1.81,3.26-1.11,.92-2.74,1.01-4.19,1.09-.6,.03-1.17,.06-1.56,.15-.4,.13-1.35,1.47-1.92,2.28-1.19,1.69-2.31,3.28-3.68,3.28-.26,0-1.1,.1-2.06,.21-2.16,.25-5.69,.66-8.79,.69-.57,1.11-1.73,2.41-2.92,2.92-.41,.18-.78,.24-1.1,.24Z"/><path class="f" d="M274.16,117.27c-.52,0-.94-.42-.94-.94v-18.94c0-.52,.42,1.11,.94,1.11s.94,.42,.94,.94v16.89c0,.52-.42,.94-.94,.94Z"/><path class="f" d="M292.8,120.48c-.52,0-.94-.44-.94-.99v-10.98c0-.55,.42-.99,.94-.99s.94,.44,.94,.99v10.98c0,.55-.42,.99-.94,.99Z"/><path class="f" d="M293.88,104.52c-.41-.65-.72-1.27-1.02-1.86-.65-1.3-1.16-2.34-2.52-3.05-1.06-.56-2.47-.55-3.72-.55h-.31c-.45,0-.83-.31-.92-.75-.27-1.27-.23-5.67-.14-12.76,.06-4.5,.12-9.15,.05-12.79,0-.52,.4-.95,.93-.96h.02c.51,0,.93,.41,.94,.93,.07,3.66,0,8.33-.05,12.85-.06,4.73-.12,9.59,.01,11.59,1.29,0,2.78,.09,4.07,.77,1.9,1,2.67,1.97,3.37,3.38l.43,4.18-1.14-.98Z"/><path class="f" d="M286.14,70.75c-.5,0-.91-.39-.94-.89-.1-1.77-.23-2.42-.29-2.64-.23-.22-.35-.55-.28-.89,.11-.51,.61-.83,1.12-.73,.89,.19,1.17,1.08,1.34,4.15,.03,.52-.37,.96-.89,.99-.02,0-.03,0-.05,0Z"/><path class="f" d="M312.49,70.09c-.2,0-.41-.07-.58-.2-.41-.32-.48-.92-.16-1.32,1.26-1.6,2.43-3.18,2.89-4.9,.13-.5,.65-.8,1.15-.67,.5,.13,.8,.65,.67,1.15-.55,2.07-1.84,3.82-3.23,5.58-.19,.24-.46,.36-.74,.36Z"/><path class="f" d="M252.49,69.66c-.33,0-.65-.17-.82-.48-.37-.64-.75-1.18-1.09-1.65-.73-1.02-1.43-1.98-1.36-3.38,.03-.52,.47-.92,.99-.9,.52,.03,.92,.47,.9,.99-.03,.71,.3,1.21,1.01,2.18,.37,.51,.79,1.09,1.2,1.82,.26,.45,.1,1.03-.35,1.29-.15,.08-.31,.12-.46,.12Z"/><path class="f" d="M301.37,125.13c-.3,0-.6-.15-.78-.42l-2.55-3.8h-20.65c-.52,0-.94-.42-.94-.94s.42-.94,.94-.94h21.15c.31,0,.61,.16,.78,.42l2.83,4.21c.29,.43,.18,1.02-.26,1.31-.16,.11-.34,.16-.52,.16Z"/><path class="f" d="M265.04,125.12c-.16,0-.33-.04-.48-.13-.45-.27-.59-.85-.33-1.29l2.5-4.2c.17-.29,.48-.46,.81-.46h6.78c.52,0,.94,.42,.94,.94s-.42,.94-.94,.94h-6.25l-2.23,3.74c-.18,.3-.49,.46-.81,.46Z"/><path class="f" d="M307.8,125.87h-49.23c-.52,0-.94-.42-.94-.94s.42-.94,.94-.94h49.23c.52,0,.94,.42,.94,.94s-.42,.94-.94,.94Z"/><path class="f" d="M278.82,116.69c-.52,0-.94-.42-.94-.94v-6.41c0-.52,.42-.94,.94-.94s.94,.42,.94,.94v6.41c0,.52-.42,.94-.94,.94Z"/><path class="f" d="M283.77,116.69c-.52,0-.94-.42-.94-.94v-6.41c0-.52,.42-.94,.94-.94s.94,.42,.94,.94v6.41c0,.52-.42,.94-.94,.94Z"/><path class="f" d="M289.02,116.69c-.52,0-.94-.42-.94-.94v-6.41c0-.52,.42-.94,.94-.94s.94,.42,.94,.94v6.41c0,.52-.42,.94-.94,.94Z"/><path class="f" d="M275.03,63.2c-.41,0-.78-.04-1.09-.12-.5-.13-.8-.65-.67-1.15,.13-.5,.65-.8,1.15-.67,.84,.23,2.86-.15,3.56-1.01,.33-.4,.92-.46,1.33-.13,.4,.33,.46,.92,.13,1.33-.99,1.22-2.95,1.76-4.42,1.76Z"/></g><path class="f" d="M273.05,61.92c.94-1.1,2.15-3.04,2.5-4.44,.75-2.97,.96-6.02,3.53-9,.51-.59,1.26-1.09,2.04-.99,.55,.08,1.08,.48,1.62,.35,.33-.08,1.06-.4,1.38-.52,.63-.24,1.13-.06,1.67,.33,.64,.46,1.55,1.23,1.92,1.92,.73,1.36,1.03,2.66,1.26,4.18,.21,1.4,.59,3.35,.95,4.72,.19,.74,1.34,3.5,2.05,3.8-.94,.16-2.76,.03-3.71-.06-.67-.06-1.41-.23-1.79-.78-.45-.64-.23-1.51-.04-2.27,.47-1.82,.75-3.68,.83-5.56,.02-.39,.02-.79-.09-1.16-.13-.43-.4-.8-.7-1.13-.88-.97-2.06-1.72-3.35-1.92-1.3-.2-2.71,.18-3.61,1.14-.6,.63-.94,1.46-1.25,2.27-.19,.51-.38,1.04-.31,1.58,.07,.5,.35,.93,.61,1.37,.59,1.01,1.05,2.1,1.36,3.23,.05,.18,.09,.37,.05,.56-.04,.15-.14,.28-.24,.4-1.23,1.47-3.17,2.31-5.08,2.23-.55-.02-1.18-.1-1.58,.29"/></g><g><path class="f" d="M412.04,92.51c-20.38,0-42.03-4.21-42.03-12.01s21.65-12.01,42.03-12.01,42.03,4.21,42.03,12.01-21.65,12.01-42.03,12.01Zm0-21.26c-24.33,0-39.26,5.39-39.26,9.25s14.94,9.25,39.26,9.25,39.26-5.39,39.26-9.25-14.94-9.25-39.26-9.25Z"/><path class="f" d="M412.06,106.25c-.76,0-1.38-.62-1.38-1.38s.62-1.38,1.38-1.38c23.35,0,43.07-7.84,43.07-17.12,0-3.47-2.84-6.28-5.22-8.02-.62-.45-.75-1.32-.3-1.93,.45-.62,1.32-.75,1.93-.3,4.16,3.04,6.36,6.59,6.36,10.25,0,11.15-20.13,19.89-45.84,19.89Z"/><path class="f" d="M447.77,86.69c-.49,0-.97-.27-1.22-.73-1.89-3.55-15.63-7.39-34.51-7.39s-32.45,3.73-34.49,7.34c-.37,.67-1.22,.9-1.88,.53-.66-.38-.9-1.22-.52-1.88,3.39-6.01,21.5-8.75,36.89-8.75s33.71,2.77,36.95,8.85c.36,.67,.1,1.51-.57,1.87-.21,.11-.43,.16-.65,.16Z"/><path class="f" d="M412.04,87.21c-.76,0-1.38-.62-1.38-1.38v-8.65c0-.76,.62-1.38,1.38-1.38s1.38,.62,1.38,1.38v8.65c0,.76-.62,1.38-1.38,1.38Z"/><path class="f" d="M401.19,86.69c-.65,0-1.23-.46-1.36-1.12l-1.42-7.33c-.15-.75,.34-1.48,1.09-1.62,.75-.16,1.48,.34,1.62,1.09l1.42,7.33c.15,.75-.34,1.48-1.09,1.62-.09,.02-.18,.03-.26,.03Z"/><path class="f" d="M390.04,87.21c-.56,0-1.08-.34-1.29-.89l-2.12-5.56c-.27-.71,.09-1.51,.8-1.78,.72-.27,1.51,.09,1.78,.8l2.12,5.56c.27,.71-.09,1.51-.8,1.78-.16,.06-.33,.09-.49,.09Z"/><path class="f" d="M412.02,106.25c-25.7,0-45.84-8.74-45.84-19.89,0-3.67,2.2-7.21,6.36-10.25,.62-.45,1.48-.32,1.93,.3,.45,.62,.32,1.48-.3,1.93-2.38,1.74-5.22,4.55-5.22,8.02,0,9.28,19.73,17.12,43.07,17.12,.76,0,1.38,.62,1.38,1.38s-.62,1.38-1.38,1.38Z"/><path class="f" d="M422.94,86.69c-.09,0-.18,0-.26-.03-.75-.15-1.24-.87-1.1-1.62l1.42-7.33c.15-.75,.88-1.25,1.62-1.09,.75,.15,1.24,.87,1.1,1.62l-1.42,7.33c-.13,.66-.71,1.12-1.36,1.12Z"/><path class="f" d="M434.08,87.21c-.16,0-.33-.03-.49-.09-.71-.27-1.07-1.07-.8-1.78l2.12-5.56c.27-.71,1.07-1.08,1.78-.8,.71,.27,1.07,1.07,.8,1.78l-2.12,5.56c-.21,.55-.73,.89-1.29,.89Z"/><path class="f" d="M412.02,125.87c-17.44,0-32.35-5.82-34.82-11.04-.04-.09-.07-.18-.1-.27l-4.34-18.2c-.18-.74,.28-1.49,1.02-1.66,.74-.18,1.49,.28,1.67,1.02l4.3,18.05c2.01,3.77,15.7,9.34,32.26,9.34s30.25-5.58,32.26-9.34l4.3-18.05c.18-.74,.93-1.21,1.67-1.02,.74,.18,1.2,.92,1.02,1.66l-4.34,18.2c-.02,.09-.05,.18-.1,.27-2.47,5.22-17.38,11.04-34.82,11.04Z"/><path class="f" d="M417.81,125.11c-.76,0-1.38-.62-1.38-1.38v-4.11h-8.78v4.11c0,.76-.62,1.38-1.38,1.38s-1.38-.62-1.38-1.38v-5.5c0-.76,.62-1.38,1.38-1.38h11.55c.76,0,1.38,.62,1.38,1.38v5.5c0,.76-.62,1.38-1.38,1.38Z"/><path class="f" d="M423.49,124.76c-.76,0-1.38-.62-1.38-1.38v-8.62h-20.13v8.53c0,.76-.62,1.38-1.38,1.38s-1.38-.62-1.38-1.38v-9.92c0-.76,.62-1.38,1.38-1.38h22.89c.76,0,1.38,.62,1.38,1.38v10c0,.76-.62,1.38-1.38,1.38Z"/><path class="f" d="M425.16,65.19h-26.2c-.76,0-1.38-.62-1.38-1.38v-12.51c0-.76,.62-1.38,1.38-1.38h26.2c.76,0,1.38,.62,1.38,1.38v12.51c0,.76-.62,1.38-1.38,1.38Zm-24.82-2.77h23.44v-9.74h-23.44v9.74Z"/><path class="f" d="M406.69,70.94c-.76,0-1.38-.62-1.38-1.38v-5.1c0-.76,.62-1.38,1.38-1.38s1.38,.62,1.38,1.38v5.1c0,.76-.62,1.38-1.38,1.38Z"/><path class="f" d="M417.44,70.94c-.76,0-1.38-.62-1.38-1.38v-5.1c0-.76,.62-1.38,1.38-1.38s1.38,.62,1.38,1.38v5.1c0,.76-.62,1.38-1.38,1.38Z"/></g><g><path class="f" d="M140.11,.37h4.06l2.63,19.85h.07L149.51,.37h3.69l-3.88,25.59h-5.34L140.11,.37Z"/><path class="f" d="M156.05,.37h4.02V25.96h-4.02V.37Z"/><path class="f" d="M167.09,.37h5.45l4.17,25.59h-4.02l-.73-5.08v.07h-4.57l-.73,5.01h-3.73L167.09,.37Zm4.39,17.11l-1.79-12.65h-.07l-1.75,12.65h3.62Z"/><path class="f" d="M178.65,25.96v-3.66c.44,.11,.88,.15,1.32,.15,1.61,0,2.38-.77,2.38-2.45V.37h4.02V19.89c0,4.21-1.9,6.22-5.85,6.22-.73,0-1.28-.04-1.86-.15Z"/><path class="f" d="M190.16,.37h10.97v3.66h-6.95v6.76h5.52v3.66h-5.52v7.86h6.95v3.66h-10.97V.37Z"/><path class="f" d="M211.11,.37h4.02V25.96h-4.02V.37Z"/><path class="f" d="M219.04,.37h5.05l3.91,15.32h.07V.37h3.58V25.96h-4.13l-4.83-18.68h-.07V25.96h-3.58V.37Z"/><path class="f" d="M235.31,20.04V6.29c0-3.95,2.05-6.29,5.92-6.29s5.92,2.34,5.92,6.29v2.71h-3.8v-2.96c0-1.68-.8-2.38-2.01-2.38s-2.01,.69-2.01,2.38v14.29c0,1.68,.8,2.34,2.01,2.34s2.01-.66,2.01-2.34v-3.91h3.8v3.62c0,3.95-2.05,6.29-5.92,6.29s-5.92-2.34-5.92-6.29Z"/><path class="f" d="M250.48,.37h4.02V22.3h6.62v3.66h-10.64V.37Z"/><path class="f" d="M263.83,19.89V.37h4.02V20.18c0,1.83,.77,2.49,2.05,2.49s2.05-.66,2.05-2.49V.37h3.88V19.89c0,4.09-2.05,6.43-6,6.43s-6-2.34-6-6.43Z"/><path class="f" d="M283.28,15.06l-4.86-14.7h4.28l2.74,9.4h.07l2.74-9.4h3.91l-4.86,14.7v10.89h-4.02V15.06Z"/><path class="f" d="M294.9,.37h10.97v3.66h-6.95v6.76h5.52v3.66h-5.52v7.86h6.95v3.66h-10.97V.37Z"/><path class="f" d="M309.09,8.15h3.88v3.88h-3.88v-3.88Zm0,13.93h3.88v3.88h-3.88v-3.88Z"/></g><g><path class="f" d="M389.37,138.01h8v2.75h-4.97v5.36h3.9v2.75h-3.9v8.38h-3.02v-19.24Z"/><path class="f" d="M399.51,138.01h3.02v19.24h-3.02v-19.24Z"/><path class="f" d="M405.48,138.01h3.79l2.94,11.51h.05v-11.51h2.69v19.24h-3.11l-3.63-14.04h-.05v14.04h-2.69v-19.24Z"/><path class="f" d="M420.24,138.01h4.09l3.13,19.24h-3.02l-.55-3.82v.05h-3.43l-.55,3.77h-2.8l3.13-19.24Zm3.3,12.86l-1.35-9.51h-.06l-1.32,9.51h2.72Z"/><path class="f" d="M429.61,138.01h3.02v16.49h4.97v2.75h-8v-19.24Z"/></g><g><path class="f" d="M262.71,140.75h-3.16v-2.75h9.34v2.75h-3.16v16.49h-3.02v-16.49Z"/><path class="f" d="M270.7,152.68v-10.11c0-3.08,1.62-4.84,4.59-4.84s4.59,1.76,4.59,4.84v10.11c0,3.08-1.62,4.84-4.59,4.84s-4.59-1.76-4.59-4.84Zm6.16,.19v-10.5c0-1.37-.6-1.9-1.57-1.9s-1.57,.52-1.57,1.9v10.5c0,1.37,.6,1.9,1.57,1.9s1.57-.52,1.57-1.9Z"/><path class="f" d="M282.49,152.68v-14.67h3.02v14.9c0,1.37,.58,1.87,1.54,1.87s1.54-.49,1.54-1.87v-14.9h2.91v14.67c0,3.08-1.54,4.84-4.51,4.84s-4.51-1.76-4.51-4.84Z"/><path class="f" d="M294.34,138.01h4.48c3.13,0,4.48,1.46,4.48,4.42v1.18c0,1.98-.63,3.24-1.98,3.79v.06c1.51,.47,2.01,1.9,2.01,4.07v3.38c0,.93,.03,1.62,.33,2.34h-3.08c-.17-.49-.28-.8-.28-2.36v-3.52c0-1.79-.52-2.36-1.9-2.36h-1.04v8.24h-3.02v-19.24Zm4.12,8.24c1.13,0,1.81-.49,1.81-2.03v-1.48c0-1.37-.47-1.98-1.54-1.98h-1.37v5.5h1.1Z"/></g><g><path class="f" d="M120.86,138.01h3.02v7.83h3.24v-7.83h3.02v19.24h-3.02v-8.66h-3.24v8.66h-3.02v-19.24Z"/><path class="f" d="M132.87,152.68v-10.11c0-3.08,1.62-4.84,4.59-4.84s4.59,1.76,4.59,4.84v10.11c0,3.08-1.62,4.84-4.59,4.84s-4.59-1.76-4.59-4.84Zm6.16,.19v-10.5c0-1.37-.6-1.9-1.57-1.9s-1.57,.52-1.57,1.9v10.5c0,1.37,.6,1.9,1.57,1.9s1.57-.52,1.57-1.9Z"/><path class="f" d="M144.25,152.68v-1.1h2.86v1.32c0,1.37,.6,1.87,1.57,1.87s1.57-.49,1.57-1.92c0-1.59-.6-2.61-2.58-4.34-2.53-2.23-3.35-3.79-3.35-5.99,0-3.02,1.57-4.78,4.51-4.78s4.4,1.76,4.4,4.84v.8h-2.86v-.99c0-1.37-.55-1.9-1.51-1.9s-1.51,.52-1.51,1.84c0,1.4,.63,2.42,2.61,4.15,2.53,2.23,3.33,3.76,3.33,6.16,0,3.13-1.59,4.89-4.56,4.89s-4.45-1.76-4.45-4.84Z"/><path class="f" d="M155.68,138.01h4.45c3.02,0,4.51,1.68,4.51,4.75v1.9c0,3.08-1.48,4.75-4.51,4.75h-1.43v7.83h-3.02v-19.24Zm4.45,8.66c.96,0,1.48-.44,1.48-1.81v-2.28c0-1.37-.52-1.81-1.48-1.81h-1.43v5.91h1.43Z"/><path class="f" d="M166.97,138.01h8.24v2.75h-5.22v5.08h4.15v2.75h-4.15v5.91h5.22v2.75h-8.24v-19.24Z"/><path class="f" d="M177.64,138.01h4.62c3.02,0,4.51,1.68,4.51,4.75v9.73c0,3.08-1.48,4.75-4.51,4.75h-4.62v-19.24Zm4.56,16.49c.96,0,1.54-.49,1.54-1.87v-10c0-1.37-.58-1.87-1.54-1.87h-1.54v13.74h1.54Z"/><path class="f" d="M191.77,138.01h4.09l3.13,19.24h-3.02l-.55-3.82v.05h-3.43l-.55,3.77h-2.8l3.13-19.24Zm3.3,12.86l-1.35-9.51h-.06l-1.32,9.51h2.72Z"/><path class="f" d="M200.45,157.24v-2.75c.33,.08,.66,.11,.99,.11,1.21,0,1.79-.58,1.79-1.84v-14.76h3.02v14.67c0,3.16-1.43,4.67-4.4,4.67-.55,0-.96-.03-1.4-.11Z"/><path class="f" d="M209.11,138.01h8.24v2.75h-5.22v5.08h4.15v2.75h-4.15v5.91h5.22v2.75h-8.24v-19.24Z"/></g><g><path class="f" d="M11.78,140.75h-3.16v-2.75h9.34v2.75h-3.16v16.49h-3.02v-16.49Z"/><path class="f" d="M20.1,138.01h3.02v19.24h-3.02v-19.24Z"/><path class="f" d="M25.87,152.79v-10.33c0-2.97,1.54-4.73,4.45-4.73s4.45,1.76,4.45,4.73v2.03h-2.86v-2.23c0-1.26-.6-1.79-1.51-1.79s-1.51,.52-1.51,1.79v10.75c0,1.26,.6,1.76,1.51,1.76s1.51-.49,1.51-1.76v-2.94h2.86v2.72c0,2.97-1.54,4.73-4.45,4.73s-4.45-1.76-4.45-4.73Z"/><path class="f" d="M37.28,138.01h3.02v8.11l3.85-8.11h3.02l-3.6,7.06,3.66,12.17h-3.16l-2.56-8.57-1.21,2.45v6.13h-3.02v-19.24Z"/><path class="f" d="M49.35,138.01h8.24v2.75h-5.22v5.08h4.15v2.75h-4.15v5.91h5.22v2.75h-8.24v-19.24Z"/><path class="f" d="M62.37,140.75h-3.16v-2.75h9.34v2.75h-3.16v16.49h-3.02v-16.49Z"/></g></g></g></g></svg>