<?xml version="1.0" encoding="UTF-8"?><svg xmlns="http://www.w3.org/2000/svg" viewBox="0 0 460.75 128.24"><defs><style>.f{fill:#c51315;}</style></defs><g id="a"/><g id="b"><g id="c"><g><g id="d"><path d="M163.95,79.56h10.58c.72,0,1.3-.58,1.3-1.3v-5.2c0-.72-.58-1.3-1.3-1.3h-10.58c-.72,0-1.3,.58-1.3,1.3v5.2c0,.72,.58,1.3,1.3,1.3Zm1.3-5.2h7.98v2.6h-7.98v-2.6Z"/><path d="M147.43,79.56h10.58c.72,0,1.3-.58,1.3-1.3v-5.2c0-.72-.58-1.3-1.3-1.3h-10.58c-.72,0-1.3,.58-1.3,1.3v5.2c0,.72,.58,1.3,1.3,1.3Zm1.3-5.2h7.98v2.6h-7.98v-2.6Z"/><path d="M180.47,79.56h10.58c.72,0,1.3-.58,1.3-1.3v-5.2c0-.72-.58-1.3-1.3-1.3h-10.58c-.72,0-1.3,.58-1.3,1.3v5.2c0,.72,.58,1.3,1.3,1.3Zm1.3-5.2h7.98v2.6h-7.98v-2.6Z"/><path d="M163.95,90.7h10.58c.72,0,1.3-.58,1.3-1.3v-5.01c0-.72-.58-1.3-1.3-1.3h-10.58c-.72,0-1.3,.58-1.3,1.3v5.01c0,.72,.58,1.3,1.3,1.3Zm1.3-5.01h7.98v2.41h-7.98v-2.41Z"/><path d="M147.43,90.7h10.58c.72,0,1.3-.58,1.3-1.3v-5.01c0-.72-.58-1.3-1.3-1.3h-10.58c-.72,0-1.3,.58-1.3,1.3v5.01c0,.72,.58,1.3,1.3,1.3Zm1.3-5.01h7.98v2.41h-7.98v-2.41Z"/><path d="M180.47,90.7h10.58c.72,0,1.3-.58,1.3-1.3v-5.01c0-.72-.58-1.3-1.3-1.3h-10.58c-.72,0-1.3,.58-1.3,1.3v5.01c0,.72,.58,1.3,1.3,1.3Zm1.3-5.01h7.98v2.41h-7.98v-2.41Z"/><path d="M163.95,101.83h10.58c.72,0,1.3-.58,1.3-1.3v-5.01c0-.72-.58-1.3-1.3-1.3h-10.58c-.72,0-1.3,.58-1.3,1.3v5.01c0,.72,.58,1.3,1.3,1.3Zm1.3-5.01h7.98v2.41h-7.98v-2.41Z"/><path d="M147.43,101.83h10.58c.72,0,1.3-.58,1.3-1.3v-5.01c0-.72-.58-1.3-1.3-1.3h-10.58c-.72,0-1.3,.58-1.3,1.3v5.01c0,.72,.58,1.3,1.3,1.3Zm1.3-5.01h7.98v2.41h-7.98v-2.41Z"/><path d="M180.47,101.83h10.58c.72,0,1.3-.58,1.3-1.3v-5.01c0-.72-.58-1.3-1.3-1.3h-10.58c-.72,0-1.3,.58-1.3,1.3v5.01c0,.72,.58,1.3,1.3,1.3Zm1.3-5.01h7.98v2.41h-7.98v-2.41Z"/><path d="M147.43,113.15h10.58c.72,0,1.3-.58,1.3-1.3v-5.2c0-.72-.58-1.3-1.3-1.3h-10.58c-.72,0-1.3,.58-1.3,1.3v5.2c0,.72,.58,1.3,1.3,1.3Zm1.3-5.2h7.98v2.6h-7.98v-2.6Z"/><path d="M180.47,113.15h10.58c.72,0,1.3-.58,1.3-1.3v-5.2c0-.72-.58-1.3-1.3-1.3h-10.58c-.72,0-1.3,.58-1.3,1.3v5.2c0,.72,.58,1.3,1.3,1.3Zm1.3-5.2h7.98v2.6h-7.98v-2.6Z"/><path d="M204.01,65.67l-9.23-16.62c-.23-.41-.66-.67-1.14-.67h-48.81c-.47,0-.91,.26-1.14,.67l-9.28,16.7c-.22,.4-.22,.89,.02,1.29s.66,.64,1.12,.64h4.08v56.23c0,.72,.58,1.3,1.3,1.3h56.6c.72,0,1.3-.58,1.3-1.3v-56.23h4.09c.72,0,1.3-.58,1.3-1.3,0-.26-.08-.51-.21-.71Zm-61.78,53.79h20.41v3.15h-20.41v-3.15Zm23.01,2.97v-14.48h7.98v14.48h-7.98Zm10.58,.19v-3.15h20.41v3.15h-20.41Zm20.41-5.75h-20.41v-10.21c0-.72-.58-1.3-1.3-1.3h-10.58c-.72,0-1.3,.58-1.3,1.3v10.21h-20.41v-49.18h54v49.18Zm1.3-51.78h-59.78l7.84-14.1h47.28l7.84,14.1h-3.17Z"/><path d="M156.06,53.32c-.72,0-1.3,.58-1.3,1.3v1.92h-2.6v-1.92c0-.72-.58-1.3-1.3-1.3s-1.3,.58-1.3,1.3v6.83c0,.72,.58,1.3,1.3,1.3s1.3-.58,1.3-1.3v-2.31h2.6v2.31c0,.72,.58,1.3,1.3,1.3s1.3-.58,1.3-1.3v-6.83c0-.72-.58-1.3-1.3-1.3Z"/><path d="M172.88,53.3h-3.94c-.72,0-1.3,.58-1.3,1.3s.58,1.3,1.3,1.3h.67v5.55c0,.72,.58,1.3,1.3,1.3s1.3-.58,1.3-1.3v-5.55h.67c.72,0,1.3-.58,1.3-1.3s-.58-1.3-1.3-1.3Z"/><path d="M179.89,55.9c.72,0,1.3-.58,1.3-1.3s-.58-1.3-1.3-1.3h-2.56c-.07,0-.15,0-.22,.02-.71,0-1.29,.58-1.29,1.3v6.83c0,.72,.58,1.3,1.3,1.3,.03,0,.07,0,.1,0,.03,0,.07,0,.1,0h2.56c.72,0,1.3-.58,1.3-1.3s-.58-1.3-1.3-1.3h-1.46v-1.01h1.46c.72,0,1.3-.58,1.3-1.3s-.58-1.3-1.3-1.3h-1.46v-.64h1.46Z"/><path d="M187.65,60.15h-1.86v-5.53c0-.72-.58-1.3-1.3-1.3s-1.3,.58-1.3,1.3v6.83c0,.72,.58,1.3,1.3,1.3,.03,0,.07,0,.1,0,.03,0,.07,0,.1,0h2.95c.72,0,1.3-.58,1.3-1.3s-.58-1.3-1.3-1.3Z"/><path d="M162.99,53.24c-2.31,0-4.19,2.13-4.19,4.75s1.88,4.75,4.19,4.75,4.19-2.13,4.19-4.75-1.88-4.75-4.19-4.75Zm0,6.91c-.86,0-1.59-.99-1.59-2.15s.73-2.15,1.59-2.15,1.59,.99,1.59,2.15-.73,2.15-1.59,2.15Z"/></g><g id="e"><path d="M76.9,65.91s.03-.03,.04-.04c1.48-1.48,3.5-5.19,4.7-8.61,1.18-3.38,2.08-7.91-.33-10.31-1.01-1.01-2.48-1.52-4.37-1.52-5.1,0-12.49,3.82-14.56,5.89-.01,.01-.03,.03-.04,.04l-6.59,7.22-11.73-1.22,1.2-1.2c1.77-1.77,1.77-4.65,0-6.43-1.77-1.77-4.65-1.77-6.43,0l-6.42,6.42-21.4-2.22c-.53-.05-1.05,.23-1.28,.71l-2.67,5.56c-.15,.32-.17,.69-.04,1.02,.13,.33,.39,.59,.72,.72l33.22,12.87-17.42,19.09-.97,1.02-12.95-.74c-.36-.02-.72,.11-.97,.37l-3.63,3.63c-.29,.29-.42,.7-.36,1.11,.07,.4,.32,.75,.69,.93l10.34,5.13-3.04,4.7c-.33,.5-.26,1.17,.17,1.59l3.81,3.81c.25,.25,.57,.37,.9,.37,.24,0,.48-.07,.69-.2l4.69-3.04,5.12,10.34c.18,.37,.53,.62,.93,.69,.07,.01,.14,.02,.21,.02,.33,0,.66-.13,.9-.37l3.63-3.63c.26-.26,.39-.61,.37-.98l-.78-12.89,.99-.94,19.27-17.58,12.98,33.5c.13,.33,.39,.59,.72,.72,.15,.06,.31,.09,.47,.09,.19,0,.38-.04,.55-.13l5.56-2.67c.48-.23,.77-.74,.71-1.28l-2.22-21.4,6.42-6.42c1.77-1.77,1.77-4.65,0-6.43-1.77-1.77-4.65-1.77-6.43,0l-1.2,1.2-1.25-12.08,7.06-6.44Zm-36.3-14.38c.78-.78,2.05-.78,2.83,0,.78,.78,.78,2.05,0,2.83l-2.66,2.66-5.12-.53,4.96-4.96Zm-30.68,8.53l1.69-3.51,42.02,4.36-10.84,11.88L9.93,60.06Zm-1.87,38.67l1.98-1.98,10.81,.62-3.77,5.83-9.02-4.47Zm21.46,21.46l-4.47-9.01,5.78-3.75,.66,10.79-1.97,1.97Zm3.03-17.26l-.02,.02-1.15,1.09-13.7,8.88-2.35-2.35,8.82-13.63,1.23-1.3,.02-.02,31.74-34.78c.06-.05,.11-.11,.16-.17l6.92-7.58c1.75-1.72,8.43-5.12,12.74-5.12,1.19,0,2.05,.26,2.57,.77,1.11,1.12,1.01,3.98-.27,7.67-1.17,3.35-3.02,6.56-4.08,7.63l-42.62,38.89Zm41.55-17.91c.78-.78,2.05-.78,2.83,0,.78,.78,.78,2.05,0,2.83l-4.96,4.96-.53-5.12,2.66-2.66Zm-2.2,31.82l-3.51,1.69-12.84-33.14,11.95-10.91,4.39,42.36Z"/><path d="M56.54,70.03l-22.36,22.36c-.5,.5-.5,1.3,0,1.8,.25,.25,.57,.37,.9,.37s.65-.12,.9-.37l22.36-22.36c.5-.5,.5-1.3,0-1.8-.5-.5-1.3-.5-1.8,0Z"/><path d="M67.11,55.67c-.5-.5-1.3-.5-1.8,0-.25,.25-.37,.57-.37,.9s.12,.65,.37,.9l5.34,5.34c.25,.25,.57,.37,.9,.37s.65-.12,.9-.37c.25-.25,.37-.57,.37-.9s-.12-.65-.37-.9l-5.34-5.34Z"/><path d="M16.55,70.42c0-.33-.12-.65-.37-.9-.5-.5-1.3-.5-1.8,0L.37,83.53c-.25,.25-.37,.57-.37,.9s.12,.65,.37,.9c.25,.25,.57,.37,.9,.37s.65-.12,.9-.37l14.01-14.01c.25-.25,.37-.57,.37-.9Z"/><path d="M12.44,82.78c0,.33,.12,.65,.37,.9,.25,.25,.57,.37,.9,.37s.65-.12,.9-.37l6.97-6.97c.25-.25,.37-.57,.37-.9s-.12-.65-.37-.9c-.5-.5-1.3-.5-1.8,0l-6.97,6.97c-.25,.25-.37,.57-.37,.9Z"/><path d="M56.92,112.06l-14.01,14.01c-.25,.25-.37,.57-.37,.9s.12,.65,.37,.9c.25,.25,.57,.37,.9,.37s.65-.12,.9-.37l14.01-14.01c.25-.25,.37-.57,.37-.9s-.12-.65-.37-.9c-.5-.5-1.3-.5-1.8,0Z"/><path d="M46.36,115.43l6.97-6.97c.25-.25,.37-.57,.37-.9s-.12-.65-.37-.9c-.5-.5-1.3-.5-1.8,0l-6.97,6.97c-.25,.25-.37,.57-.37,.9s.12,.65,.37,.9c.25,.25,.57,.37,.9,.37s.65-.12,.9-.37Z"/></g><g><g><path d="M297.86,109.13c-.42,0-.81-.29-.92-.72-.46-1.88-1.71-3.13-3.44-4.42l-.82-.61c-2.97-2.24-5.54-4.17-9.02-5.57-.68-.27-1.5-.52-2.36-.77-3.28-.98-7.77-2.32-7.37-6.87,.18-2.12,.33-4.29,.47-6.38,.07-1.06,.14-2.13,.22-3.19l1.03-14.13c.04-.52,.49-.91,1.01-.87,.52,.04,.91,.49,.87,1.01l-1.03,14.13c-.08,1.06-.15,2.12-.22,3.18-.14,2.1-.29,4.28-.48,6.42-.24,2.81,2.23,3.77,6.03,4.9,.9,.27,1.76,.53,2.52,.83,3.72,1.49,6.51,3.59,9.46,5.81l.81,.61c1.77,1.33,3.5,2.92,4.14,5.48,.12,.51-.18,1.02-.69,1.14-.08,.02-.15,.03-.23,.03Z"/><path d="M277.75,81.62c-.32,0-.63-.16-.8-.45-1.39-2.26-1.96-3.92-1.99-3.99-.17-.49,.09-1.03,.59-1.2,.49-.17,1.03,.09,1.2,.59,0,.01,.54,1.54,1.81,3.61,.27,.44,.13,1.02-.31,1.3-.15,.09-.32,.14-.49,.14Z"/><path d="M287.81,91.07c-.15,0-.29-.03-.43-.11-2.94-1.52-5.55-3.58-7.77-6.15-.34-.39-.3-.99,.1-1.33,.39-.34,.99-.3,1.33,.1,2.06,2.38,4.49,4.3,7.21,5.71,.46,.24,.64,.81,.41,1.27-.17,.32-.5,.51-.84,.51Z"/><path d="M285.83,58.89h0c-.1,0-.2,0-.31,0-3.92-.15-4.72-3.05-5.51-5.86-.08-.28-.16-.57-.24-.86-.56-1.93-.25-3.82,.88-5.32,1.15-1.53,3.07-2.51,4.91-2.51,1.73,0,3.61,1.01,4.79,2.56,1.13,1.5,1.48,3.26,1,4.97-.15,.54-.28,1.07-.41,1.58-.66,2.68-1.35,5.44-5.1,5.44Zm-.27-12.68c-1.24,0-2.61,.71-3.4,1.76-.54,.72-1.07,1.93-.57,3.66,.09,.3,.17,.59,.25,.88,.82,2.96,1.33,4.39,3.76,4.48,.08,0,.16,0,.24,0,2.19,0,2.56-1.16,3.27-4.01,.13-.53,.26-1.07,.43-1.64,.43-1.52-.24-2.74-.69-3.32-.82-1.08-2.14-1.81-3.28-1.81Z"/><path d="M297.13,107.34c-.49,0-.91-.38-.94-.87-.05-.82-.1-2.16-.15-3.45-.05-1.28-.1-2.61-.15-3.4-.03-.51,.36-.95,.88-.98,.52-.03,.88,.73,.91,1.24,.05,.82,.19,1.78,.24,3.07,.05,1.28,.1,2.61,.15,3.41,.03,.51-.36,.95-.88,.98-.02,0-.04,0-.06,0Z"/><path d="M296.55,99.51c-.49,0-.91-.38-.94-.87l-.34-5.46c-.23-3.65-.64-13.44-.79-17.12l-.05-1.22c-.06-1.46-.22-5.68-.36-9.41-.08-2.22-.16-4.21-.2-5.28-.25-.04-.53-.07-.82-.1-1.6-.19-3.6-.42-4.44-1.78-.27-.44-.13-1.01,.31-1.28,.44-.27,1.03-.13,1.3,.31,.36,.59,1.92,.77,3.05,.9,.65,.08,1.26,.15,1.76,.29,.39,.11,.67,.45,.69,.85,.02,.51,.12,3.06,.23,6.02,.14,3.72,.29,7.94,.36,9.4l.05,1.22c.15,3.68,.57,13.45,.79,17.09l.34,5.46c.03,.51-.36,.95-.88,.99-.02,0-.04,0-.06,0Z"/><path d="M274.73,75.33c-.32,0-.69-.07-1.1-.24-1.2-.51-2.36-1.81-2.92-2.92-3.1-.03-6.62-.44-8.79-.69-.97-.11-1.8-.21-2.06-.21-1.37,0-2.49-1.59-3.68-3.28-.57-.8-1.51-2.15-1.92-2.28-.34-.08-.89-.07-1.47-.06-1.48,.02-3.31,.05-4.62-1.23-.72-.7-1.12-1.65-1.11-2.61,0-.72,.25-1.36,.67-1.75,1.38-1.3,4.63-.91,4.99-.86,3.38,.41,6.91,.35,10.32,.28h.41c1.64-.04,3.27-.37,4.99-.73,1.96-.4,3.99-.82,6.05-.74,2.02,.08,6.3,.73,8.04,2.65,.35,.39,.32,.98-.06,1.33-.39,.35-.98,.32-1.33-.06-1.15-1.27-4.62-1.95-6.72-2.03-1.82-.07-3.65,.31-5.59,.71-1.73,.36-3.51,.73-5.33,.76h-.41c-3.48,.07-7.07,.14-10.59-.29-1.27-.17-3.02-.05-3.46,.36-.11,.15-.2,.98,.47,1.63,.75,.73,2.04,.71,3.28,.69,.7-.01,1.35-.02,1.92,.11,1.08,.25,1.99,1.54,3.04,3.03,.59,.84,1.69,2.4,2.16,2.48,.35,0,1.01,.08,2.27,.22,2.42,.28,6.07,.71,9.19,.68h0c.42,0,.79,.28,.91,.68,.19,.66,1.19,1.99,2.13,2.39,.12,.05,.35,.13,.48,.06,.46-.24,1.03-.06,1.27,.4,.24,.46,.06,1.03-.4,1.27-.24,.13-.58,.24-1,.24Z"/><path d="M296.4,75.33c-.42,0-.75-.11-1-.24-.46-.24-.64-.81-.4-1.27,.24-.46,.81-.64,1.27-.4,.13,.07,.36,0,.48-.06,.94-.4,1.94-1.73,2.13-2.39,.12-.41,.5-.69,.92-.68,3.12,.03,6.77-.4,9.19-.68,1.25-.15,1.93-.22,2.28-.22,.45-.09,1.55-1.64,2.14-2.48,1.05-1.49,1.96-2.78,3.04-3.03,.55-.13,1.19-.16,1.88-.2,1.15-.06,2.46-.14,3.09-.66,.55-.45,1-1.31,1.11-1.72-.67-.31-2.58-.39-3.85-.22-4.16,.51-11.11,.31-15.71,.17-2.16-.06-3.86-.11-4.52-.07-.43,.03-.88,.08-1.31,.12-.36,.04-.72,.08-1.08,.11-.52,.04-.97-.35-1.02-.87-.04-.52,.35-.97,.86-1.02,.34-.03,.68-.07,1.03-.1,.45-.05,.92-.1,1.4-.13,.75-.05,2.41,0,4.7,.07,4.54,.14,11.41,.34,15.42-.15,.03,0,4.13-.51,5.55,.82,.21,.2,.46,.57,.44,1.18-.04,1.12-.97,2.57-1.81,3.26-1.11,.92-2.74,1.01-4.19,1.09-.6,.03-1.17,.06-1.56,.15-.4,.13-1.35,1.47-1.92,2.28-1.19,1.69-2.31,3.28-3.68,3.28-.26,0-1.1,.1-2.06,.21-2.16,.25-5.69,.66-8.79,.69-.57,1.11-1.73,2.41-2.92,2.92-.41,.18-.78,.24-1.1,.24Z"/><path d="M277.01,113.78c-.52,0-.94-.42-.94-.94v-18.94c0-.52,.42,1.11,.94,1.11s.94,.42,.94,.94v16.89c0,.52-.42,.94-.94,.94Z"/><path d="M295.65,116.99c-.52,0-.94-.44-.94-.99v-10.98c0-.55,.42-.99,.94-.99s.94,.44,.94,.99v10.98c0,.55-.42,.99-.94,.99Z"/><path d="M296.73,101.02c-.41-.65-.72-1.27-1.02-1.86-.65-1.3-1.16-2.34-2.52-3.05-1.06-.56-2.47-.55-3.72-.55h-.31c-.45,0-.83-.31-.92-.75-.27-1.27-.23-5.67-.14-12.76,.06-4.5,.12-9.15,.05-12.79,0-.52,.4-.95,.93-.96h.02c.51,0,.93,.41,.94,.93,.07,3.66,0,8.33-.05,12.85-.06,4.73-.12,9.59,.01,11.59,1.29,0,2.78,.09,4.07,.77,1.9,1,2.67,1.97,3.37,3.38l.43,4.18-1.14-.98Z"/><path d="M288.99,67.26c-.5,0-.91-.39-.94-.89-.1-1.77-.23-2.42-.29-2.64-.23-.22-.35-.55-.28-.89,.11-.51,.61-.83,1.12-.73,.89,.19,1.17,1.08,1.34,4.15,.03,.52-.37,.96-.89,.99-.02,0-.03,0-.05,0Z"/><path d="M315.34,66.6c-.2,0-.41-.07-.58-.2-.41-.32-.48-.92-.16-1.32,1.26-1.6,2.43-3.18,2.89-4.9,.13-.5,.65-.8,1.15-.67,.5,.13,.8,.65,.67,1.15-.55,2.07-1.84,3.82-3.23,5.58-.19,.24-.46,.36-.74,.36Z"/><path d="M255.34,66.17c-.33,0-.65-.17-.82-.48-.37-.64-.75-1.18-1.09-1.65-.73-1.02-1.43-1.98-1.36-3.38,.03-.52,.47-.92,.99-.9,.52,.03,.92,.47,.9,.99-.03,.71,.3,1.21,1.01,2.18,.37,.51,.79,1.09,1.2,1.82,.26,.45,.1,1.03-.35,1.29-.15,.08-.31,.12-.46,.12Z"/><path d="M304.22,121.64c-.3,0-.6-.15-.78-.42l-2.55-3.8h-20.65c-.52,0-.94-.42-.94-.94s.42-.94,.94-.94h21.15c.31,0,.61,.16,.78,.42l2.83,4.21c.29,.43,.18,1.02-.26,1.31-.16,.11-.34,.16-.52,.16Z"/><path d="M267.9,121.63c-.16,0-.33-.04-.48-.13-.45-.27-.59-.85-.33-1.29l2.5-4.2c.17-.29,.48-.46,.81-.46h6.78c.52,0,.94,.42,.94,.94s-.42,.94-.94,.94h-6.25l-2.23,3.74c-.18,.3-.49,.46-.81,.46Z"/><path d="M310.65,122.38h-49.23c-.52,0-.94-.42-.94-.94s.42-.94,.94-.94h49.23c.52,0,.94,.42,.94,.94s-.42,.94-.94,.94Z"/><path d="M281.67,113.2c-.52,0-.94-.42-.94-.94v-6.41c0-.52,.42-.94,.94-.94s.94,.42,.94,.94v6.41c0,.52-.42,.94-.94,.94Z"/><path d="M286.62,113.2c-.52,0-.94-.42-.94-.94v-6.41c0-.52,.42-.94,.94-.94s.94,.42,.94,.94v6.41c0,.52-.42,.94-.94,.94Z"/><path d="M291.87,113.2c-.52,0-.94-.42-.94-.94v-6.41c0-.52,.42-.94,.94-.94s.94,.42,.94,.94v6.41c0,.52-.42,.94-.94,.94Z"/><path d="M277.88,59.7c-.41,0-.78-.04-1.09-.12-.5-.13-.8-.65-.67-1.15,.13-.5,.65-.8,1.15-.67,.84,.23,2.86-.15,3.56-1.01,.33-.4,.92-.46,1.33-.13,.4,.33,.46,.92,.13,1.33-.99,1.22-2.95,1.76-4.42,1.76Z"/></g><path d="M275.9,58.43c.94-1.1,2.15-3.04,2.5-4.44,.75-2.97,.96-6.02,3.53-9,.51-.59,1.26-1.09,2.04-.99,.55,.08,1.08,.48,1.62,.35,.33-.08,1.06-.4,1.38-.52,.63-.24,1.13-.06,1.67,.33,.64,.46,1.55,1.23,1.92,1.92,.73,1.36,1.03,2.66,1.26,4.18,.21,1.4,.59,3.35,.95,4.72,.19,.74,1.34,3.5,2.05,3.8-.94,.16-2.76,.03-3.71-.06-.67-.06-1.41-.23-1.79-.78-.45-.64-.23-1.51-.04-2.27,.47-1.82,.75-3.68,.83-5.56,.02-.39,.02-.79-.09-1.16-.13-.43-.4-.8-.7-1.13-.88-.97-2.06-1.72-3.35-1.92-1.3-.2-2.71,.18-3.61,1.14-.6,.63-.94,1.46-1.25,2.27-.19,.51-.38,1.04-.31,1.58,.07,.5,.35,.93,.61,1.37,.59,1.01,1.05,2.1,1.36,3.23,.05,.18,.09,.37,.05,.56-.04,.15-.14,.28-.24,.4-1.23,1.47-3.17,2.31-5.08,2.23-.55-.02-1.18-.1-1.58,.29"/></g><g><path d="M414.89,85.76c-20.38,0-42.03-4.21-42.03-12.01s21.65-12.01,42.03-12.01,42.03,4.21,42.03,12.01-21.65,12.01-42.03,12.01Zm0-21.26c-24.33,0-39.26,5.39-39.26,9.25s14.94,9.25,39.26,9.25,39.26-5.39,39.26-9.25-14.94-9.25-39.26-9.25Z"/><path d="M414.91,99.5c-.76,0-1.38-.62-1.38-1.38s.62-1.38,1.38-1.38c23.35,0,43.07-7.84,43.07-17.12,0-3.47-2.84-6.28-5.22-8.02-.62-.45-.75-1.32-.3-1.93,.45-.62,1.32-.75,1.93-.3,4.16,3.04,6.36,6.59,6.36,10.25,0,11.15-20.13,19.89-45.84,19.89Z"/><path d="M450.62,79.94c-.49,0-.97-.27-1.22-.73-1.89-3.55-15.63-7.39-34.51-7.39s-32.45,3.73-34.49,7.34c-.37,.67-1.22,.9-1.88,.53-.66-.38-.9-1.22-.52-1.88,3.39-6.01,21.5-8.75,36.89-8.75s33.71,2.77,36.95,8.85c.36,.67,.1,1.51-.57,1.87-.21,.11-.43,.16-.65,.16Z"/><path d="M414.89,80.46c-.76,0-1.38-.62-1.38-1.38v-8.65c0-.76,.62-1.38,1.38-1.38s1.38,.62,1.38,1.38v8.65c0,.76-.62,1.38-1.38,1.38Z"/><path d="M404.04,79.94c-.65,0-1.23-.46-1.36-1.12l-1.42-7.33c-.15-.75,.34-1.48,1.09-1.62,.75-.16,1.48,.34,1.62,1.09l1.42,7.33c.15,.75-.34,1.48-1.09,1.62-.09,.02-.18,.03-.26,.03Z"/><path d="M392.89,80.46c-.56,0-1.08-.34-1.29-.89l-2.12-5.56c-.27-.71,.09-1.51,.8-1.78,.72-.27,1.51,.09,1.78,.8l2.12,5.56c.27,.71-.09,1.51-.8,1.78-.16,.06-.33,.09-.49,.09Z"/><path d="M414.87,99.5c-25.7,0-45.84-8.74-45.84-19.89,0-3.67,2.2-7.21,6.36-10.25,.62-.45,1.48-.32,1.93,.3,.45,.62,.32,1.48-.3,1.93-2.38,1.74-5.22,4.55-5.22,8.02,0,9.28,19.73,17.12,43.07,17.12,.76,0,1.38,.62,1.38,1.38s-.62,1.38-1.38,1.38Z"/><path d="M425.79,79.94c-.09,0-.18,0-.26-.03-.75-.15-1.24-.87-1.1-1.62l1.42-7.33c.15-.75,.88-1.25,1.62-1.09,.75,.15,1.24,.87,1.1,1.62l-1.42,7.33c-.13,.66-.71,1.12-1.36,1.12Z"/><path d="M436.93,80.46c-.16,0-.33-.03-.49-.09-.71-.27-1.07-1.07-.8-1.78l2.12-5.56c.27-.71,1.07-1.08,1.78-.8,.71,.27,1.07,1.07,.8,1.78l-2.12,5.56c-.21,.55-.73,.89-1.29,.89Z"/><path d="M414.87,119.12c-17.44,0-32.35-5.82-34.82-11.04-.04-.09-.07-.18-.1-.27l-4.34-18.2c-.18-.74,.28-1.49,1.02-1.66,.74-.18,1.49,.28,1.67,1.02l4.3,18.05c2.01,3.77,15.7,9.34,32.26,9.34s30.25-5.58,32.26-9.34l4.3-18.05c.18-.74,.93-1.21,1.67-1.02,.74,.18,1.2,.92,1.02,1.66l-4.34,18.2c-.02,.09-.05,.18-.1,.27-2.47,5.22-17.38,11.04-34.82,11.04Z"/><path d="M420.67,118.36c-.76,0-1.38-.62-1.38-1.38v-4.11h-8.78v4.11c0,.76-.62,1.38-1.38,1.38s-1.38-.62-1.38-1.38v-5.5c0-.76,.62-1.38,1.38-1.38h11.55c.76,0,1.38,.62,1.38,1.38v5.5c0,.76-.62,1.38-1.38,1.38Z"/><path d="M426.34,118.01c-.76,0-1.38-.62-1.38-1.38v-8.62h-20.13v8.53c0,.76-.62,1.38-1.38,1.38s-1.38-.62-1.38-1.38v-9.92c0-.76,.62-1.38,1.38-1.38h22.89c.76,0,1.38,.62,1.38,1.38v10c0,.76-.62,1.38-1.38,1.38Z"/><path d="M428.01,58.44h-26.2c-.76,0-1.38-.62-1.38-1.38v-12.51c0-.76,.62-1.38,1.38-1.38h26.2c.76,0,1.38,.62,1.38,1.38v12.51c0,.76-.62,1.38-1.38,1.38Zm-24.82-2.77h23.44v-9.74h-23.44v9.74Z"/><path d="M409.54,64.19c-.76,0-1.38-.62-1.38-1.38v-5.1c0-.76,.62-1.38,1.38-1.38s1.38,.62,1.38,1.38v5.1c0,.76-.62,1.38-1.38,1.38Z"/><path d="M420.29,64.19c-.76,0-1.38-.62-1.38-1.38v-5.1c0-.76,.62-1.38,1.38-1.38s1.38,.62,1.38,1.38v5.1c0,.76-.62,1.38-1.38,1.38Z"/></g><g><path class="f" d="M142.57,.37h4.06l2.63,19.85h.07L151.97,.37h3.69l-3.88,25.59h-5.34L142.57,.37Z"/><path class="f" d="M158.51,.37h4.02V25.96h-4.02V.37Z"/><path class="f" d="M169.55,.37h5.45l4.17,25.59h-4.02l-.73-5.08v.07h-4.57l-.73,5.01h-3.73L169.55,.37Zm4.39,17.11l-1.79-12.65h-.07l-1.75,12.65h3.62Z"/><path class="f" d="M181.11,25.96v-3.66c.44,.11,.88,.15,1.32,.15,1.61,0,2.38-.77,2.38-2.45V.37h4.02V19.89c0,4.21-1.9,6.22-5.85,6.22-.73,0-1.28-.04-1.86-.15Z"/><path class="f" d="M192.62,.37h10.97v3.66h-6.95v6.76h5.52v3.66h-5.52v7.86h6.95v3.66h-10.97V.37Z"/><path class="f" d="M213.57,.37h4.02V25.96h-4.02V.37Z"/><path class="f" d="M221.5,.37h5.05l3.91,15.32h.07V.37h3.58V25.96h-4.13l-4.83-18.68h-.07V25.96h-3.58V.37Z"/><path class="f" d="M237.77,20.04V6.29c0-3.95,2.05-6.29,5.92-6.29s5.92,2.34,5.92,6.29v2.71h-3.8v-2.96c0-1.68-.8-2.38-2.01-2.38s-2.01,.69-2.01,2.38v14.29c0,1.68,.8,2.34,2.01,2.34s2.01-.66,2.01-2.34v-3.91h3.8v3.62c0,3.95-2.05,6.29-5.92,6.29s-5.92-2.34-5.92-6.29Z"/><path class="f" d="M252.94,.37h4.02V22.3h6.62v3.66h-10.64V.37Z"/><path class="f" d="M266.29,19.89V.37h4.02V20.18c0,1.83,.77,2.49,2.05,2.49s2.05-.66,2.05-2.49V.37h3.88V19.89c0,4.09-2.05,6.43-6,6.43s-6-2.34-6-6.43Z"/><path class="f" d="M285.74,15.06l-4.86-14.7h4.28l2.74,9.4h.07l2.74-9.4h3.91l-4.86,14.7v10.89h-4.02V15.06Z"/><path class="f" d="M297.36,.37h10.97v3.66h-6.95v6.76h5.52v3.66h-5.52v7.86h6.95v3.66h-10.97V.37Z"/><path class="f" d="M311.55,8.15h3.88v3.88h-3.88v-3.88Zm0,13.93h3.88v3.88h-3.88v-3.88Z"/></g></g></g></g></svg>