<?xml version="1.0" encoding="UTF-8"?><svg xmlns="http://www.w3.org/2000/svg" viewBox="0 0 529.58 183.54"><defs><style>.d{fill:#fff;}</style></defs><g id="a"/><g id="b"><g id="c"><g><g><path class="d" d="M34.37,90.93H0V2.15H34.37V90.93Z"/><path class="d" d="M76.85,90.93H44.63V2.15h33.77l9.9,29.59,1.79,5.85h.12l-.24-6.56V2.15h32.22V90.93h-33.77l-9.79-28.88-1.79-5.85h-.12l.12,6.56v28.16Z"/><path class="d" d="M141.17,83.53c-6.52-6.44-9.79-15.91-9.79-28.4v-16.83c0-12.57,3.24-22.09,9.73-28.58,6.48-6.48,15.89-9.73,28.22-9.73s21.78,2.98,28.1,8.95c6.32,5.97,9.49,15.15,9.49,27.57v.48h-33.89v-4.65c0-1.67-.34-2.92-1.01-3.76-.68-.84-1.57-1.25-2.69-1.25-1.03,0-1.89,.44-2.57,1.31-.68,.88-1.01,2.15-1.01,3.82v28.52c0,4.85,1.55,7.28,4.65,7.28,2.7,0,4.18-1.71,4.42-5.13v-.36h-5.13v-20.41h37.35v7.76c0,10.66-1.33,19.13-4,25.42-2.67,6.29-6.72,10.8-12.17,13.54-5.45,2.74-12.59,4.12-21.42,4.12-12.33,0-21.76-3.22-28.28-9.67Z"/><path class="d" d="M215.87,90.93V2.15h39.38c12.09,0,21.06,2.37,26.91,7.1,5.85,4.73,8.77,11.4,8.77,19.99v1.91c0,5.57-1.09,10.3-3.28,14.2-2.19,3.9-5.51,6.56-9.96,8v.12c4.22,1.04,7.26,3.4,9.13,7.1,1.87,3.7,2.84,8.49,2.92,14.38v6.32c.16,4.46,.68,7.68,1.55,9.67h-33.89c-.56-2.86-.88-7.56-.95-14.08v-4.18c-.08-2.46-.56-4.28-1.43-5.43-.88-1.15-2.31-1.73-4.3-1.73h-.48v25.42h-34.37Zm36.16-46.66c1.51,0,2.69-.54,3.52-1.61,.83-1.07,1.25-3.12,1.25-6.15v-1.67c0-3.02-.42-5.07-1.25-6.15-.84-1.07-2.01-1.61-3.52-1.61h-1.79v17.18h1.79Z"/><path class="d" d="M360.26,90.93h-61.81V2.15h60.62V28.52h-26.25v5.97h23.39v23.51h-23.39v5.97h27.45v26.97Z"/><path class="d" d="M367.65,61.93h32.58c.08,2.07,.42,3.6,1.01,4.59,.6,1,1.65,1.49,3.16,1.49,.87,0,1.57-.28,2.09-.84,.52-.56,.78-1.23,.78-2.03,0-.95-.22-1.71-.66-2.27-.44-.56-1.43-1.21-2.98-1.97-1.55-.76-3.56-1.69-6.03-2.8l-3.7-1.67c-7.16-2.46-12.61-4.99-16.35-7.58-3.74-2.58-6.29-5.47-7.64-8.65-1.35-3.18-2.07-7.16-2.15-11.93v-.12c0-8.91,3.18-15.83,9.55-20.76,6.36-4.93,15.31-7.4,26.85-7.4s20.54,2.74,26.55,8.23c6.01,5.49,8.93,13.29,8.77,23.39h-31.26c0-2.31-.36-3.94-1.07-4.89-.72-.95-1.75-1.43-3.1-1.43-1.83,0-2.74,.95-2.74,2.86v.12c0,2.07,2.31,3.94,6.92,5.61,8.91,2.79,15.73,5.67,20.47,8.65,4.73,2.98,8,6.25,9.79,9.79,1.79,3.54,2.69,7.86,2.69,12.95,0,8.83-3.32,15.69-9.96,20.58-6.64,4.89-15.57,7.34-26.79,7.34-24.58,0-36.83-10.42-36.75-31.26Z"/><path class="d" d="M529.58,90.93h-35.44l-1.31-10.86h-12.53l-1.43,10.86h-35.32L463.12,2.15h46.66l19.81,88.78Zm-44.03-52.51l-2.27,17.54h6.44l-2.15-17.54-.95-8.23h-.24l-.83,8.23Z"/></g><g><path class="d" d="M63.67,118.24h31.09v9.2h-10.67v55.19h-9.75v-55.19h-10.67v-9.2Z"/><path class="d" d="M105.24,179.36c-2.82-2.79-4.23-6.42-4.23-10.9v-50.22h9.75v50.22c0,1.84,.51,3.28,1.52,4.32,1.01,1.04,2.31,1.56,3.91,1.56s2.9-.52,3.91-1.56c1.01-1.04,1.52-2.48,1.52-4.32v-50.22h9.57v50.22c0,4.48-1.38,8.11-4.14,10.9-2.76,2.79-6.38,4.19-10.85,4.19s-8.13-1.39-10.95-4.19Z"/><path class="d" d="M145.9,181.52c-2.39-1.35-4.25-3.22-5.56-5.61-1.32-2.39-1.98-5.12-1.98-8.19v-2.3l9.38-1.01v2.39c0,2.33,.55,4.17,1.66,5.52,1.1,1.35,2.64,2.02,4.6,2.02s3.42-.55,4.55-1.66c1.13-1.1,1.7-2.61,1.7-4.51,0-2.08-.6-4.08-1.79-5.98-1.2-1.9-3.57-4.54-7.13-7.91-4.78-4.54-8.05-8.31-9.8-11.31-1.75-3-2.62-6.28-2.62-9.84,0-4.84,1.32-8.69,3.96-11.54,2.64-2.85,6.25-4.28,10.85-4.28s8.22,1.44,10.85,4.32c2.64,2.88,3.96,6.75,3.96,11.59v1.66l-9.38,1.01v-1.84c0-2.45-.46-4.32-1.38-5.61-.92-1.29-2.24-1.93-3.96-1.93s-3.04,.52-3.96,1.56c-.92,1.04-1.38,2.58-1.38,4.6s.61,3.97,1.84,5.84c1.23,1.87,3.59,4.55,7.08,8.05,4.78,4.78,8.05,8.63,9.8,11.54,1.75,2.91,2.62,6.12,2.62,9.61,0,3.07-.66,5.79-1.98,8.19-1.32,2.39-3.17,4.26-5.56,5.61-2.39,1.35-5.12,2.02-8.19,2.02s-5.79-.68-8.19-2.02Z"/></g><g><path class="d" d="M184.78,181.06V116.54h30.27c16.54,0,24.8,8.9,24.8,26.71v11.19c0,8.5-2.01,15.06-6.03,19.69-4.02,4.63-10.28,6.94-18.78,6.94h-30.27Zm26.89-18.91c2.08,0,3.12-1.33,3.12-3.99v-18.73c0-2.66-1.07-3.99-3.21-3.99h-1.82v26.71h1.91Z"/><path class="d" d="M304.56,181.06h-25.76l-.95-7.89h-9.11l-1.04,7.89h-25.67l14.22-64.53h33.91l14.4,64.53Zm-32-38.16l-1.65,12.75h4.68l-1.56-12.75-.69-5.98h-.17l-.61,5.98Z"/><path class="d" d="M338.12,181.06h-24.89v-44.4h-11.1v-20.12h47.18v20.12h-11.19v44.4Z"/><path class="d" d="M361.23,175.73c-4.71-4.65-7.07-11.55-7.07-20.68v-12.49c0-9.08,2.36-15.94,7.07-20.6,4.71-4.65,11.61-6.98,20.68-6.98s15.97,2.33,20.69,6.98c4.71,4.66,7.07,11.52,7.07,20.6v12.49c0,9.08-2.37,15.96-7.11,20.64-4.74,4.68-11.62,7.02-20.64,7.02s-15.97-2.33-20.68-6.98Zm23.37-17.22v-19.25c0-2.6-.9-3.9-2.69-3.9s-2.6,1.3-2.6,3.9v19.25c0,2.54,.87,3.82,2.6,3.82s2.69-1.27,2.69-3.82Z"/><path class="d" d="M414.87,159.99h23.68c.06,1.5,.3,2.62,.74,3.34,.43,.72,1.2,1.08,2.3,1.08,.64,0,1.14-.2,1.52-.61,.38-.4,.56-.9,.56-1.47,0-.69-.16-1.24-.48-1.65-.32-.4-1.04-.88-2.17-1.43-1.13-.55-2.59-1.23-4.38-2.04l-2.69-1.21c-5.2-1.79-9.16-3.63-11.88-5.51-2.72-1.88-4.57-3.97-5.55-6.29-.98-2.31-1.5-5.2-1.56-8.67v-.09c0-6.47,2.31-11.5,6.94-15.09,4.62-3.58,11.13-5.38,19.51-5.38s14.93,1.99,19.3,5.98c4.36,3.99,6.49,9.66,6.37,17h-22.72c0-1.68-.26-2.86-.78-3.56s-1.27-1.04-2.25-1.04c-1.33,0-2,.69-2,2.08v.09c0,1.5,1.68,2.86,5.03,4.08,6.48,2.02,11.43,4.12,14.87,6.29,3.44,2.17,5.81,4.54,7.11,7.11,1.3,2.57,1.95,5.71,1.95,9.41,0,6.42-2.41,11.4-7.24,14.96-4.83,3.56-11.32,5.33-19.47,5.33-17.87,0-26.77-7.57-26.71-22.72Z"/></g></g></g></g></svg>