<?xml version="1.0" encoding="UTF-8"?><svg xmlns="http://www.w3.org/2000/svg" viewBox="0 0 523.82 149.75"><defs><style>.d{fill:#fff;}</style></defs><g id="a"/><g id="b"><g id="c"><g><g><path class="d" d="M0,73.33V1.73H33.3c8.72,0,15.45,2.33,20.16,6.98,4.72,4.65,7.07,11.47,7.07,20.45v1.83c0,9.18-2.18,16.14-6.54,20.88-4.36,4.75-10.39,7.12-18.09,7.12h-8.18v14.34H0ZM29.16,37.34c1.22,0,2.17-.43,2.84-1.3,.67-.87,1.01-2.52,1.01-4.96v-1.35c0-2.44-.34-4.09-1.01-4.96-.67-.87-1.62-1.3-2.84-1.3h-1.44v13.86h1.44Z"/><path class="d" d="M127.61,73.33h-28.58l-1.06-8.76h-10.1l-1.15,8.76h-28.49L74.01,1.73h37.63l15.98,71.6ZM92.1,30.99l-1.83,14.15h5.2l-1.73-14.15-.77-6.64h-.19l-.67,6.64Z"/><path class="d" d="M133.19,73.33V1.73h31.76c9.75,0,16.99,1.91,21.7,5.73,4.72,3.82,7.07,9.19,7.07,16.12v1.54c0,4.49-.88,8.31-2.65,11.45-1.77,3.14-4.44,5.29-8.04,6.45v.1c3.4,.83,5.85,2.74,7.36,5.73,1.51,2.98,2.29,6.85,2.36,11.6v5.1c.13,3.59,.54,6.19,1.25,7.8h-27.33c-.45-2.31-.71-6.09-.77-11.36v-3.37c-.06-1.99-.45-3.45-1.15-4.38-.71-.93-1.86-1.4-3.46-1.4h-.38v20.5h-27.72Zm29.16-37.63c1.22,0,2.17-.43,2.84-1.3,.67-.87,1.01-2.52,1.01-4.96v-1.35c0-2.44-.34-4.09-1.01-4.96-.67-.87-1.62-1.3-2.84-1.3h-1.44v13.86h1.44Z"/><path class="d" d="M237.99,73.33h-27.62V24.06h-12.32V1.73h52.35V24.06h-12.42v49.27Z"/><path class="d" d="M284.67,73.33h-27.72V1.73h27.72V73.33Z"/><path class="d" d="M299.87,67.41c-5.26-5.16-7.89-12.78-7.89-22.86v-13.67c0-10.2,2.61-17.9,7.84-23.1,5.23-5.2,12.81-7.79,22.76-7.79s17.77,2.45,22.9,7.36c5.13,4.91,7.7,12.53,7.7,22.86v2.98h-27.52v-5.68c0-1.8-.24-3.08-.72-3.85-.48-.77-1.2-1.15-2.17-1.15s-1.68,.34-2.17,1.01c-.48,.67-.72,1.85-.72,3.51v21.17c0,1.6,.24,2.74,.72,3.42,.48,.67,1.2,1.01,2.17,1.01s1.68-.37,2.17-1.11c.48-.74,.72-1.97,.72-3.71v-6.54h27.52v3.75c0,10.33-2.5,17.93-7.51,22.81-5,4.88-12.67,7.31-23,7.31s-17.55-2.58-22.81-7.75Z"/><path class="d" d="M387.93,73.33h-27.72V1.73h27.72V73.33Z"/><path class="d" d="M396.21,73.33V1.73h33.3c8.72,0,15.45,2.33,20.16,6.98,4.72,4.65,7.07,11.47,7.07,20.45v1.83c0,9.18-2.18,16.14-6.54,20.88-4.36,4.75-10.39,7.12-18.09,7.12h-8.18v14.34h-27.72Zm29.16-35.99c1.22,0,2.17-.43,2.84-1.3,.67-.87,1.01-2.52,1.01-4.96v-1.35c0-2.44-.34-4.09-1.01-4.96-.67-.87-1.62-1.3-2.84-1.3h-1.44v13.86h1.44Z"/><path class="d" d="M523.82,73.33h-28.58l-1.06-8.76h-10.1l-1.15,8.76h-28.49L470.21,1.73h37.63l15.98,71.6Zm-35.51-42.34l-1.83,14.15h5.2l-1.73-14.15-.77-6.64h-.19l-.67,6.64Z"/></g><g><g><path class="d" d="M35.62,96.48h12.31c3.76,0,6.75,1.13,8.98,3.38,2.23,2.25,3.34,5.25,3.34,9.01v6.08c0,3.76-1.11,6.76-3.34,9.01-2.23,2.25-5.22,3.38-8.98,3.38h-4.45v21.07h-7.86v-51.92Zm11.94,23.44c1.53,0,2.72-.42,3.56-1.26,.84-.84,1.26-2.03,1.26-3.56v-6.38c0-1.53-.42-2.72-1.26-3.56-.84-.84-2.03-1.26-3.56-1.26h-4.08v16.02h4.08Z"/><path class="d" d="M68.92,145.7c-2.33-2.3-3.49-5.33-3.49-9.09v-28.34c0-3.76,1.16-6.79,3.49-9.09,2.32-2.3,5.37-3.45,9.12-3.45s6.8,1.15,9.12,3.45c2.32,2.3,3.49,5.33,3.49,9.09v28.34c0,3.76-1.16,6.79-3.49,9.09-2.32,2.3-5.37,3.45-9.12,3.45s-6.8-1.15-9.12-3.45Zm12.61-5.3c.84-.89,1.26-2.15,1.26-3.78v-28.34c0-1.63-.42-2.89-1.26-3.78-.84-.89-2-1.33-3.49-1.33s-2.65,.44-3.49,1.33c-.84,.89-1.26,2.15-1.26,3.78v28.34c0,1.63,.42,2.89,1.26,3.78,.84,.89,2,1.34,3.49,1.34s2.64-.45,3.49-1.34Z"/><path class="d" d="M115.5,148.41l-5.71-21.44h-4.08v21.44h-7.86v-51.92h12.31c3.76,0,6.75,1.13,8.98,3.38,2.23,2.25,3.34,5.25,3.34,9.01v5.71c0,2.37-.47,4.48-1.41,6.31-.94,1.83-2.28,3.26-4.01,4.3l6.6,23.22h-8.16Zm-9.79-28.86h4.08c1.53,0,2.72-.42,3.56-1.26,.84-.84,1.26-2.03,1.26-3.56v-6.01c0-1.53-.42-2.72-1.26-3.56-.84-.84-2.03-1.26-3.56-1.26h-4.08v15.65Z"/><path class="d" d="M146.58,145.77c-2.28-2.25-3.41-5.18-3.41-8.79v-40.5h7.86v40.5c0,1.48,.41,2.65,1.22,3.49,.82,.84,1.87,1.26,3.15,1.26s2.34-.42,3.15-1.26c.82-.84,1.22-2,1.22-3.49v-40.5h7.71v40.5c0,3.61-1.11,6.54-3.34,8.79-2.23,2.25-5.14,3.38-8.75,3.38s-6.55-1.12-8.83-3.38Z"/><path class="d" d="M175.07,96.48h8.68l10.01,34.86v-34.86h7.71v51.92h-8.31l-10.39-33.23v33.23h-7.71v-51.92Z"/><path class="d" d="M464.43,136.91h-8.46l-1.71,11.5h-7.86l8.6-51.92h10.53l8.6,51.92h-8.01l-1.71-11.5Zm-1.04-7.57l-3.19-21.73-3.19,21.73h6.38Z"/><path class="d" d="M480.75,112.65h7.86v7.79h-7.86v-7.79Zm0,27.97h7.86v7.79h-7.86v-7.79Z"/></g><g><path class="d" d="M231.85,148.42l-11.33-52.04h20.7l3.64,32.45,.42,3.92h.14l.42-3.92,3.64-32.45h20.77l-11.47,52.04h-26.93Z"/><path class="d" d="M294.45,148.42h-20.14v-52.04h20.14v52.04Z"/><path class="d" d="M349.01,148.42h-20.77l-.77-6.36h-7.34l-.84,6.36h-20.7l11.47-52.04h27.35l11.61,52.04Zm-25.81-30.78l-1.33,10.28h3.78l-1.26-10.28-.56-4.83h-.14l-.49,4.83Z"/><path class="d" d="M366.49,96.38h20.14v33.85c0,6.67-1.76,11.59-5.28,14.76-3.52,3.17-8.71,4.76-15.56,4.76-4.94,0-9.65-.51-14.13-1.54l.49-15.95c3.59,.65,6.55,.98,8.88,.98,1.96,0,3.36-.35,4.2-1.05s1.26-2.03,1.26-3.99v-16.58h-13.22v-15.18h13.22v-.07Z"/><path class="d" d="M428.46,148.42h-36.23v-52.04h35.53v15.46h-15.39v3.5h13.71v13.78h-13.71v3.5h16.09v15.81Z"/></g></g></g></g></g></svg>