<?xml version="1.0" encoding="UTF-8"?><svg xmlns="http://www.w3.org/2000/svg" viewBox="0 0 12.45 817.63"><defs><style>.d{fill:#fff;}</style></defs><g id="a"/><g id="b"><g id="c"><g><g><path class="d" d="M5.59,335l-.9,1.19,1.5-.19v.73l-1.5-.18,.91,1.2-.63,.39-.57-1.36-.6,1.35-.62-.37,.92-1.2-1.5,.18v-.73l1.49,.19-.91-1.18,.62-.39,.6,1.36,.57-1.36,.62,.37Z"/><path class="d" d="M10.79,330.7l-2.13,.48v2.14l2.13,.49v.81l-8.2-1.94v-.87l8.2-1.94v.83Zm-4.94,1.11c-.77,.18-1.63,.35-2.24,.44,.61,.08,1.49,.27,2.25,.44l2.04,.46v-1.8l-2.05,.46Z"/><path class="d" d="M7.25,327.1v.97h3.54v.82H2.59v-1.9c0-1.21,.7-2.12,2.27-2.12s2.39,1,2.39,2.22Zm-3.9-.07v1.04h3.14v-1.01c0-.89-.55-1.37-1.58-1.37s-1.56,.48-1.56,1.33Z"/><path class="d" d="M10.79,323.96H2.59v-.82h7.44v-2.61h.76v3.43Z"/><path class="d" d="M10.79,319.51H2.59v-.82H10.79v.82Z"/><path class="d" d="M10.91,315.27c0,1.51-1.59,2.25-4.23,2.25s-4.23-.78-4.23-2.27c0-1.02,.64-1.58,1.76-1.97l.33,.74c-1.01,.34-1.32,.67-1.32,1.24,0,.9,1.23,1.44,3.47,1.44s3.47-.56,3.47-1.48c0-.61-.41-.96-1.31-1.29l.34-.68c1.04,.35,1.73,.94,1.73,2.01Z"/><path class="d" d="M10.79,308.81l-2.13,.48v2.14l2.13,.49v.81l-8.2-1.94v-.87l8.2-1.94v.83Zm-4.94,1.11c-.77,.18-1.63,.35-2.24,.44,.61,.08,1.49,.27,2.25,.44l2.04,.46v-1.8l-2.05,.46Z"/><path class="d" d="M10.79,303.44l-4.5,1.97c-.68,.29-1.5,.64-2.01,.84,.32,0,1.1-.01,1.59-.01h4.92v.77H2.59v-.8l4.29-1.86c.74-.32,1.56-.67,2.01-.86-.3,.01-1.1,.02-1.59,.02H2.59v-.77H10.79v.69Z"/><path class="d" d="M3.34,297.22h7.45v.81H3.34v1.65h-.75v-4.12h.75v1.66Z"/><path class="d" d="M10.79,294.66H2.59v-3.5h.76v2.68h2.67v-1.69h.77v1.69h3.23v-2.82h.76v3.64Zm-8.72-1.92v.6l-1.87-1.01v-1.1l1.87,1.51Z"/><path class="d" d="M10.79,286.84l-3.72,1.23c.01,.11,.01,.98,.01,1.14h3.71v.82H2.59v-1.97c0-1.18,.7-2.1,2.19-2.1,1.08,0,1.77,.5,2.08,1.27l3.92-1.29v.9Zm-7.44,1.25v1.11h2.99v-1.07c0-.89-.53-1.36-1.51-1.36s-1.48,.48-1.48,1.31Z"/><path class="d" d="M10.79,280.47H5.88c-.42,0-1.09-.01-1.44-.01,.49,.08,1.01,.23,1.63,.41l4.95,1.43-4.95,1.43c-.62,.18-1.12,.3-1.63,.4,.35,0,.97-.01,1.44-.01h4.91v.76H2.59v-.9l4.31-1.24c.71-.21,1.39-.37,1.94-.43-.55-.07-1.23-.25-1.94-.46l-4.31-1.24v-.89H10.79v.76Z"/><path class="d" d="M10.79,278.31H2.59v-.82H10.79v.82Z"/><path class="d" d="M10.79,272.51l-4.5,1.97c-.68,.29-1.5,.64-2.01,.84,.32,0,1.1-.01,1.59-.01h4.92v.77H2.59v-.8l4.29-1.86c.74-.32,1.56-.67,2.01-.86-.3,.01-1.1,.02-1.59,.02H2.59v-.77H10.79v.69Z"/><path class="d" d="M10.91,268.38c0,1.55-1.57,2.33-4.23,2.33s-4.23-.8-4.23-2.34,1.57-2.34,4.23-2.34,4.23,.81,4.23,2.35Zm-7.69,.01c0,.91,1.17,1.5,3.47,1.5s3.47-.61,3.47-1.53-1.17-1.51-3.47-1.51-3.47,.62-3.47,1.55Z"/><path class="d" d="M10.91,263.35c0,1.03-.61,1.66-1.63,2.01l-.34-.75c.8-.32,1.21-.69,1.21-1.29,0-.7-.46-1.14-1.14-1.14-.8,0-1.44,.34-2.2,1.42-.82,1.16-1.42,1.58-2.49,1.58s-1.86-.71-1.86-1.82c0-1.01,.53-1.51,1.37-1.91l.4,.7c-.64,.33-1.01,.64-1.01,1.24,0,.66,.53,.96,1.04,.96,.66,0,1.12-.21,1.87-1.28,.85-1.24,1.65-1.72,2.79-1.72s1.99,.75,1.99,1.98Z"/><path class="d" d="M7.35,255.83h3.43v.81h-3.42l-4.78,1.93v-.89l2.17-.8c.66-.25,1.39-.51,1.86-.66-.48-.14-1.22-.41-1.86-.66l-2.17-.81v-.86l4.77,1.92Z"/><path class="d" d="M10.91,248.87c0,1.51-1.59,2.25-4.23,2.25s-4.23-.78-4.23-2.27c0-1.02,.64-1.58,1.76-1.97l.33,.74c-1.01,.34-1.32,.67-1.32,1.24,0,.9,1.23,1.44,3.47,1.44s3.47-.56,3.47-1.48c0-.61-.41-.96-1.31-1.29l.34-.68c1.04,.35,1.73,.94,1.73,2.01Z"/><path class="d" d="M10.91,243.92c0,1.55-1.57,2.33-4.23,2.33s-4.23-.8-4.23-2.34,1.57-2.34,4.23-2.34,4.23,.81,4.23,2.35Zm-7.69,.01c0,.91,1.17,1.5,3.47,1.5s3.47-.61,3.47-1.53-1.17-1.51-3.47-1.51-3.47,.62-3.47,1.55Z"/><path class="d" d="M10.79,236.89l-4.5,1.97c-.68,.29-1.5,.64-2.01,.84,.32,0,1.1-.01,1.59-.01h4.92v.77H2.59v-.8l4.29-1.86c.74-.32,1.56-.67,2.01-.86-.3,.01-1.1,.02-1.59,.02H2.59v-.77H10.79v.69Z"/><path class="d" d="M10.79,233.39v1.46H2.59v-1.59c0-1.73,1.39-2.6,4.04-2.6,2.87,0,4.16,1.03,4.16,2.73Zm-7.44-.09v.74h6.68v-.73c0-1.12-.93-1.83-3.36-1.83-2.24,0-3.31,.62-3.31,1.81Z"/><path class="d" d="M10.79,229.5H2.59v-.82H10.79v.82Z"/><path class="d" d="M10.91,225.26c0,1.51-1.59,2.25-4.23,2.25s-4.23-.78-4.23-2.27c0-1.02,.64-1.58,1.76-1.97l.33,.74c-1.01,.34-1.32,.67-1.32,1.24,0,.9,1.23,1.44,3.47,1.44s3.47-.56,3.47-1.48c0-.61-.41-.96-1.31-1.29l.34-.68c1.04,.35,1.73,.94,1.73,2.01Z"/><path class="d" d="M10.79,222.21H2.59v-.82H10.79v.82Z"/><path class="d" d="M10.91,217.89c0,1.55-1.57,2.33-4.23,2.33s-4.23-.8-4.23-2.34,1.57-2.34,4.23-2.34,4.23,.81,4.23,2.35Zm-7.69,.01c0,.91,1.17,1.5,3.47,1.5s3.47-.61,3.47-1.53-1.17-1.51-3.47-1.51-3.47,.62-3.47,1.55Z"/><path class="d" d="M10.79,210.85l-4.5,1.97c-.68,.29-1.5,.64-2.01,.84,.32,0,1.1-.01,1.59-.01h4.92v.77H2.59v-.8l4.29-1.86c.74-.32,1.56-.67,2.01-.86-.3,.01-1.1,.02-1.59,.02H2.59v-.77H10.79v.69Z"/><path class="d" d="M10.79,208.82H2.59v-3.5h.76v2.68h2.67v-1.69h.77v1.69h3.23v-2.82h.76v3.64Z"/><path class="d" d="M10.91,202.58c0,1.03-.61,1.66-1.63,2.01l-.34-.75c.8-.32,1.21-.69,1.21-1.29,0-.7-.46-1.14-1.14-1.14-.8,0-1.44,.34-2.2,1.42-.82,1.16-1.42,1.58-2.49,1.58s-1.86-.71-1.86-1.82c0-1.01,.53-1.51,1.37-1.91l.4,.7c-.64,.33-1.01,.64-1.01,1.24,0,.66,.53,.96,1.04,.96,.66,0,1.12-.21,1.87-1.28,.85-1.24,1.65-1.72,2.79-1.72s1.99,.75,1.99,1.98Z"/><path class="d" d="M10.91,199.32c0,.34-.27,.6-.61,.6s-.62-.26-.62-.6,.28-.6,.62-.6,.61,.25,.61,.6Z"/><path class="d" d="M7.25,193.77v.97h3.54v.82H2.59v-1.9c0-1.21,.7-2.12,2.27-2.12s2.39,1,2.39,2.22Zm-3.9-.07v1.04h3.14v-1.01c0-.89-.55-1.37-1.58-1.37s-1.56,.48-1.56,1.33Z"/><path class="d" d="M10.79,187.43l-3.72,1.23c.01,.11,.01,.98,.01,1.14h3.71v.82H2.59v-1.97c0-1.18,.7-2.1,2.19-2.1,1.08,0,1.77,.5,2.08,1.27l3.92-1.29v.9Zm-7.44,1.25v1.11h2.99v-1.07c0-.89-.53-1.36-1.51-1.36s-1.48,.48-1.48,1.31Z"/><path class="d" d="M10.91,183.48c0,1.55-1.57,2.33-4.23,2.33s-4.23-.8-4.23-2.34,1.57-2.34,4.23-2.34,4.23,.81,4.23,2.35Zm-7.69,.01c0,.91,1.17,1.5,3.47,1.5s3.47-.61,3.47-1.53-1.17-1.51-3.47-1.51-3.47,.62-3.47,1.55Z"/><path class="d" d="M10.79,175.61H5.88c-.42,0-1.09-.01-1.44-.01,.49,.08,1.01,.23,1.63,.41l4.95,1.43-4.95,1.43c-.62,.18-1.12,.3-1.63,.4,.35,0,.97-.01,1.44-.01h4.91v.76H2.59v-.9l4.31-1.24c.71-.21,1.39-.37,1.94-.43-.55-.07-1.23-.25-1.94-.46l-4.31-1.24v-.89H10.79v.76Z"/><path class="d" d="M10.91,171.41c0,1.55-1.57,2.33-4.23,2.33s-4.23-.8-4.23-2.34,1.57-2.34,4.23-2.34,4.23,.81,4.23,2.35Zm-7.69,.01c0,.91,1.17,1.5,3.47,1.5s3.47-.61,3.47-1.53-1.17-1.51-3.47-1.51-3.47,.62-3.47,1.55Z"/><path class="d" d="M10.91,165.93c0,1.51-1.59,2.25-4.23,2.25s-4.23-.78-4.23-2.27c0-1.02,.64-1.58,1.76-1.97l.33,.74c-1.01,.34-1.32,.67-1.32,1.24,0,.9,1.23,1.44,3.47,1.44s3.47-.56,3.47-1.48c0-.61-.41-.96-1.31-1.29l.34-.68c1.04,.35,1.73,.94,1.73,2.01Z"/><path class="d" d="M10.79,162.88H2.59v-.82H10.79v.82Z"/><path class="d" d="M10.91,158.56c0,1.55-1.57,2.33-4.23,2.33s-4.23-.8-4.23-2.34,1.57-2.34,4.23-2.34,4.23,.81,4.23,2.35Zm-7.69,.01c0,.91,1.17,1.5,3.47,1.5s3.47-.61,3.47-1.53-1.17-1.51-3.47-1.51-3.47,.62-3.47,1.55Zm-1.16-.22v.6l-1.87-1.01v-1.1l1.87,1.51Z"/><path class="d" d="M10.79,151.52l-4.5,1.97c-.68,.29-1.5,.64-2.01,.84,.32,0,1.1-.01,1.59-.01h4.92v.77H2.59v-.8l4.29-1.86c.74-.32,1.56-.67,2.01-.86-.3,.01-1.1,.02-1.59,.02H2.59v-.77H10.79v.69Z"/><path class="d" d="M10.79,144.98v.8l-8.2,1.92v-.83l4.99-1.09c.76-.16,1.55-.3,2.15-.4-.61-.09-1.41-.25-2.15-.41l-4.99-1.09v-.82l8.2,1.92Z"/><path class="d" d="M10.79,138.54l-2.13,.48v2.14l2.13,.49v.81l-8.2-1.94v-.87l8.2-1.94v.83Zm-4.94,1.11c-.77,.18-1.63,.35-2.24,.44,.61,.08,1.49,.27,2.25,.44l2.04,.46v-1.8l-2.05,.46Zm-3.78,.14v.6l-1.87-1.01v-1.1l1.87,1.51Z"/><path class="d" d="M10.79,136.74H2.59v-.82h7.44v-2.61h.76v3.43Z"/><path class="d" d="M10.79,132.3H2.59v-.82H10.79v.82Z"/><path class="d" d="M10.79,128.61v1.46H2.59v-1.59c0-1.73,1.39-2.6,4.04-2.6,2.87,0,4.16,1.03,4.16,2.73Zm-7.44-.09v.74h6.68v-.73c0-1.12-.93-1.83-3.36-1.83-2.24,0-3.31,.62-3.31,1.81Z"/><path class="d" d="M10.79,121.44l-2.13,.48v2.14l2.13,.49v.81l-8.2-1.94v-.87l8.2-1.94v.83Zm-4.94,1.11c-.77,.18-1.63,.35-2.24,.44,.61,.08,1.49,.27,2.25,.44l2.04,.46v-1.8l-2.05,.46Z"/><path class="d" d="M10.79,114.02h-3.96v2.63h3.96v.82H2.59v-.82h3.48v-2.63H2.59v-.81H10.79v.81Z"/><path class="d" d="M10.79,108.32l-2.13,.48v2.14l2.13,.49v.81l-8.2-1.94v-.87l8.2-1.94v.83Zm-4.94,1.11c-.77,.18-1.63,.35-2.24,.44,.61,.08,1.49,.27,2.25,.44l2.04,.46v-1.8l-2.05,.46Z"/><path class="d" d="M10.91,104.94c0,1.03-.61,1.66-1.63,2.01l-.34-.75c.8-.32,1.21-.69,1.21-1.29,0-.7-.46-1.14-1.14-1.14-.8,0-1.44,.34-2.2,1.42-.82,1.16-1.42,1.58-2.49,1.58s-1.86-.71-1.86-1.82c0-1.01,.53-1.51,1.37-1.91l.4,.7c-.64,.33-1.01,.64-1.01,1.24,0,.66,.53,.96,1.04,.96,.66,0,1.12-.21,1.87-1.28,.85-1.24,1.65-1.72,2.79-1.72s1.99,.75,1.99,1.98Z"/><path class="d" d="M3.34,99.99h7.45v.81H3.34v1.65h-.75v-4.12h.75v1.66Z"/><path class="d" d="M10.79,94.48l-2.13,.48v2.14l2.13,.49v.81l-8.2-1.94v-.87l8.2-1.94v.83Zm-4.94,1.11c-.77,.18-1.63,.35-2.24,.44,.61,.08,1.49,.27,2.25,.44l2.04,.46v-1.8l-2.05,.46Z"/><path class="d" d="M10.79,90.07H4.03v1.12h-.54c-.06-.75-.25-1.15-.9-1.29v-.63H10.79v.8Z"/><path class="d" d="M10.91,86.33c0,.98-.68,1.53-1.41,1.87l-.4-.67c.55-.27,1.04-.62,1.04-1.27,0-.92-.87-1.28-2.08-1.28-.97,0-1.8,.39-1.8,1.21,0,.55,.26,.87,.68,1.17l-.2,.71-4.16-.2v-3.44h.8v2.71l2.6,.16c-.32-.29-.48-.67-.48-1.22,0-1.25,.91-1.93,2.52-1.93,1.78,0,2.89,.73,2.89,2.17Z"/><path class="d" d="M10.79,79.46v1.46H2.59v-1.59c0-1.73,1.39-2.6,4.04-2.6,2.87,0,4.16,1.03,4.16,2.73Zm-7.44-.09v.74h6.68v-.73c0-1.12-.93-1.83-3.36-1.83-2.24,0-3.31,.62-3.31,1.81Z"/><path class="d" d="M10.79,75.63H2.59v-3.5h.76v2.68h2.67v-1.69h.77v1.69h3.23v-2.82h.76v3.64Z"/><path class="d" d="M10.91,66.74c0,1.55-1.57,2.33-4.23,2.33s-4.23-.8-4.23-2.34,1.57-2.34,4.23-2.34,4.23,.81,4.23,2.35Zm-7.69,.01c0,.91,1.17,1.5,3.47,1.5s3.47-.61,3.47-1.53-1.17-1.51-3.47-1.51-3.47,.62-3.47,1.55Z"/><path class="d" d="M10.91,61.26c0,1.51-1.59,2.25-4.23,2.25s-4.23-.78-4.23-2.27c0-1.02,.64-1.58,1.76-1.97l.33,.74c-1.01,.34-1.32,.67-1.32,1.24,0,.9,1.23,1.44,3.47,1.44s3.47-.56,3.47-1.48c0-.61-.41-.96-1.31-1.29l.34-.68c1.04,.35,1.73,.94,1.73,2.01Z"/><path class="d" d="M3.34,56.34h7.45v.81H3.34v1.65h-.75v-4.12h.75v1.66Z"/><path class="d" d="M10.91,51.69c0,1.35-.94,2.12-2.58,2.12H2.59v-.81h5.73c1.18,0,1.84-.47,1.84-1.35s-.64-1.29-1.83-1.29H2.59v-.82h5.74c1.64,0,2.59,.78,2.59,2.14Z"/><path class="d" d="M10.79,46.38v1.85H2.59v-1.85c0-1.24,.76-1.94,2.07-1.94,.98,0,1.49,.43,1.76,1,.26-.64,.76-1.23,1.97-1.23,1.66,0,2.4,.89,2.4,2.18Zm-7.44,.03v1h2.71v-.96c0-.85-.6-1.19-1.37-1.19-.87,0-1.33,.4-1.33,1.16Zm3.47,.02v.97h3.21v-1.08c0-.89-.55-1.31-1.59-1.31s-1.62,.54-1.62,1.42Z"/><path class="d" d="M10.79,39.97l-3.72,1.23c.01,.11,.01,.98,.01,1.14h3.71v.82H2.59v-1.97c0-1.18,.7-2.1,2.19-2.1,1.08,0,1.77,.5,2.08,1.27l3.92-1.29v.9Zm-7.44,1.25v1.11h2.99v-1.07c0-.89-.53-1.36-1.51-1.36s-1.48,.48-1.48,1.31Z"/><path class="d" d="M10.79,38H2.59v-3.5h.76v2.68h2.67v-1.69h.77v1.69h3.23v-2.82h.76v3.64Z"/><path class="d" d="M10.79,29.74v1.46H2.59v-1.59c0-1.73,1.39-2.6,4.04-2.6,2.87,0,4.16,1.03,4.16,2.73Zm-7.44-.09v.74h6.68v-.73c0-1.12-.93-1.83-3.36-1.83-2.24,0-3.31,.62-3.31,1.81Z"/><path class="d" d="M10.79,25.91H2.59v-3.5h.76v2.68h2.67v-1.69h.77v1.69h3.23v-2.82h.76v3.64Z"/><path class="d" d="M10.79,19.56c-2.2-.04-3.16-.66-4.36-1.93-.77-.82-1.28-1.09-1.92-1.09-.81,0-1.29,.36-1.29,1.05,0,.59,.38,.9,1.08,1.23l-.35,.7c-.83-.39-1.49-.91-1.49-2s.76-1.81,2.01-1.81c.96,0,1.63,.46,2.54,1.4,1.15,1.19,1.85,1.51,3,1.57v-3.01h.77v3.89Z"/><path class="d" d="M10.91,12.77c0,1.45-1.49,2.19-4.23,2.19s-4.23-.74-4.23-2.19,1.49-2.18,4.23-2.18,4.23,.74,4.23,2.18Zm-7.69,.01c0,.91,1.15,1.36,3.47,1.36s3.47-.47,3.47-1.37-1.15-1.36-3.47-1.36-3.47,.46-3.47,1.37Z"/><path class="d" d="M10.79,10.16c-2.2-.04-3.16-.66-4.36-1.93-.77-.82-1.28-1.09-1.92-1.09-.81,0-1.29,.36-1.29,1.05,0,.59,.38,.9,1.08,1.23l-.35,.7c-.83-.39-1.49-.91-1.49-2s.76-1.81,2.01-1.81c.96,0,1.63,.46,2.54,1.4,1.15,1.19,1.85,1.51,3,1.57v-3.01h.77v3.89Z"/><path class="d" d="M10.91,3.94c0,.93-.55,1.53-1.55,1.91l-.36-.7c.78-.3,1.15-.7,1.15-1.25,0-.86-.71-1.21-1.69-1.21-1.16,0-1.66,.49-1.66,1.42v.32h-.75v-.39c0-.81-.5-1.18-1.53-1.18-.77,0-1.3,.34-1.3,1.07,0,.52,.32,.81,1.02,1.15l-.34,.66c-.86-.4-1.44-.88-1.44-1.84,0-1.12,.82-1.85,2-1.85,1.1,0,1.63,.39,1.93,.98,.19-.63,.66-1.16,2.04-1.16,1.53,0,2.48,.8,2.48,2.08Z"/><path class="d" d="M10.91,.6c0,.34-.27,.6-.61,.6s-.62-.26-.62-.6,.28-.6,.62-.6,.61,.25,.61,.6Z"/></g><g><g><path class="d" d="M0,811.64c.02,1.62,.69,3.14,1.89,4.28,1.19,1.13,2.77,1.74,4.43,1.72,1.66-.02,3.21-.68,4.37-1.85,1.14-1.15,1.76-2.65,1.76-4.24,0-.03,0-.06,0-.09-.02-1.62-.7-3.14-1.89-4.27-1.19-1.13-2.76-1.75-4.42-1.72-3.55,.05-6.19,2.7-6.13,6.18m11.26-.09c0,2.69-2.21,4.9-4.96,4.94-1.13,.02-2.2-.33-3.09-.99l-.83-.76c-.75-.87-1.18-1.98-1.2-3.12-.03-1.36,.47-2.63,1.39-3.55,.91-.93,2.18-1.45,3.57-1.47,1.5-.02,2.93,.61,3.9,1.73l.63,.92c.38,.7,.57,1.45,.58,2.23v.07"/><path class="d" d="M3.19,813.55v.64s.02,.07,.05,.1c.03,.03,.06,.04,.1,.04,.39,0,.46,.15,.48,.2,.08,.17,.12,.43,.12,.75,0,.08,.07,.14,.14,.14h.58s.07-.02,.1-.05c.03-.03,.04-.06,.04-.1v-.84l4.62-.07s.07-.02,.1-.04c.03-.03,.04-.06,.04-.1h0v-.75c-.01-.08-.08-.14-.16-.14l-6.09,.09c-.08,0-.15,.06-.14,.14"/><path class="d" d="M6.61,809.44c-.2,.05-.36,.17-.48,.35-.06-.09-.13-.15-.22-.2-.13-.07-.29-.12-.51-.15-.19-.02-.46-.03-.79-.02h0c-.21,0-.4,.02-.57,.05-.19,.03-.36,.1-.51,.22-.32,.26-.48,.65-.47,1.15,0,.41,.11,.72,.31,.93,.2,.2,.41,.33,.64,.38,.21,.04,.44,.06,.69,.06,.38,0,.65-.02,.84-.06,.22-.04,.39-.11,.5-.22,.04-.04,.08-.08,.11-.13,.06,.09,.13,.17,.21,.22,.15,.11,.35,.17,.6,.19,.22,.02,.58,.02,1.1,.02,.46,0,.82-.11,1.06-.31,.13-.11,.25-.26,.34-.46,.09-.19,.13-.41,.13-.66v-.03c0-.19-.05-.42-.15-.69-.1-.3-.32-.51-.65-.63-.17-.06-.35-.1-.54-.11-.17-.01-.4-.02-.73-.01-.39,0-.7,.04-.92,.1m.56,1.79c-.1,0-.19-.02-.25-.04-.06-.02-.11-.06-.14-.1-.06-.07-.09-.17-.09-.29v-.02c0-.13,.03-.23,.09-.28,.07-.07,.17-.11,.28-.13,.11-.01,.3-.03,.59-.04h0c.26,0,.45,0,.59,.02,.12,.01,.21,.05,.28,.12,.06,.06,.1,.16,.1,.3,0,.14-.03,.25-.08,.3-.06,.06-.15,.1-.25,.12-.14,.02-.34,.03-.59,.03-.25,0-.43,0-.54,0m-3.21-.42c0-.22,.08-.28,.14-.31,.14-.06,.36-.1,.65-.1,.27,0,.47,.01,.6,.03,.1,.01,.18,.05,.24,.1,.05,.05,.08,.13,.08,.26,0,.15-.02,.25-.08,.31-.06,.06-.14,.1-.24,.12-.13,.02-.32,.03-.54,.04-.31,0-.54-.03-.69-.09-.07-.03-.16-.1-.17-.34h0Z"/><path class="d" d="M5.73,809.1l-.02-.61h.63s.07-.03,.1-.06c.03-.03,.04-.06,.04-.1h0v-.34s-.02-.07-.05-.1c-.03-.03-.06-.04-.1-.04l-.63,.02v-.61c-.02-.08-.08-.14-.16-.14h-.35s-.07,.02-.1,.05c-.03,.03-.04,.07-.04,.1v.62h-.61c-.08,.02-.14,.08-.14,.16v.34s.02,.07,.05,.1c.03,.03,.06,.04,.1,.04l.63-.02v.61c.02,.08,.08,.14,.16,.14h.34s.07-.02,.1-.05c.03-.03,.04-.06,.04-.1"/></g><path class="d" d="M10.79,797.2l-2.19,.48v2.15l2.19,.49v.81l-8.41-1.95v-.87l8.41-1.95v.83Zm-5.07,1.12c-.79,.18-1.67,.35-2.29,.45,.62,.08,1.53,.27,2.31,.45l2.09,.46v-1.81l-2.1,.46Z"/><path class="d" d="M10.79,793.85v1.47H2.38v-1.6c0-1.74,1.43-2.61,4.15-2.61,2.94,0,4.26,1.04,4.26,2.74m-7.63-.09v.74h6.85v-.73c0-1.13-.95-1.83-3.45-1.83-2.29,0-3.4,.62-3.4,1.82"/><path class="d" d="M10.79,787.85v.8l-8.41,1.93v-.83l5.12-1.09c.78-.16,1.59-.31,2.21-.4-.62-.1-1.44-.25-2.21-.41l-5.12-1.09v-.82l8.41,1.93Z"/><polygon class="d" points="10.79 784.88 2.38 784.88 2.38 781.37 3.16 781.37 3.16 784.06 5.9 784.06 5.9 782.37 6.7 782.37 6.7 784.06 10.01 784.06 10.01 781.23 10.79 781.23 10.79 784.88"/><path class="d" d="M10.79,776.97l-3.82,1.23c0,.11,0,.99,0,1.14h3.81v.82H2.38v-1.97c0-1.19,.72-2.1,2.25-2.1,1.11,0,1.82,.51,2.14,1.27l4.02-1.29v.91Zm-7.63,1.26v1.12h3.06v-1.07c0-.89-.54-1.36-1.55-1.36s-1.51,.48-1.51,1.32"/><polygon class="d" points="3.15 773.04 10.79 773.04 10.79 773.85 3.15 773.85 3.15 775.51 2.38 775.51 2.38 771.37 3.15 771.37 3.15 773.04"/><polygon class="d" points="10.79 770.4 2.38 770.4 2.38 766.89 3.16 766.89 3.16 769.58 5.9 769.58 5.9 767.88 6.7 767.88 6.7 769.58 10.01 769.58 10.01 766.75 10.79 766.75 10.79 770.4"/><path class="d" d="M10.79,762.1l-4.61,1.97c-.7,.29-1.54,.65-2.07,.85,.32,0,1.13-.01,1.64-.01h5.05v.78H2.38v-.8l4.4-1.87c.76-.32,1.6-.67,2.06-.86-.31,0-1.13,.02-1.63,.02H2.38v-.78H10.79v.69Z"/><path class="d" d="M10.93,757.96c0,1.51-1.64,2.26-4.34,2.26s-4.34-.79-4.34-2.28c0-1.02,.66-1.59,1.8-1.97l.34,.74c-1.03,.34-1.36,.67-1.36,1.24,0,.91,1.26,1.45,3.56,1.45s3.55-.56,3.55-1.48c0-.61-.42-.96-1.35-1.29l.35-.68c1.07,.35,1.78,.94,1.78,2.02"/><rect class="d" x="2.38" y="754" width="8.41" height=".82"/><path class="d" d="M10.79,748.97l-2.19,.48v2.15l2.19,.49v.81l-8.41-1.95v-.87l8.41-1.95v.84Zm-5.07,1.12c-.79,.18-1.67,.35-2.29,.45,.62,.08,1.53,.27,2.31,.45l2.09,.46v-1.81l-2.1,.46Z"/><path class="d" d="M5.62,746.83c0,.34-.28,.6-.62,.6s-.64-.26-.64-.6,.29-.6,.64-.6,.62,.25,.62,.6m5.31,0c0,.34-.28,.6-.62,.6s-.64-.26-.64-.6,.29-.6,.64-.6,.62,.25,.62,.6"/><polygon class="d" points="10.79 742.94 2.38 742.94 2.38 739.42 3.16 739.42 3.16 742.11 5.9 742.11 5.9 740.42 6.7 740.42 6.7 742.11 10.01 742.11 10.01 739.28 10.79 739.28 10.79 742.94"/><polygon class="d" points="10.79 738.22 2.38 738.22 2.38 737.4 10.01 737.4 10.01 734.77 10.79 734.77 10.79 738.22"/><path class="d" d="M10.93,729.49c0,1.51-1.64,2.26-4.34,2.26s-4.34-.79-4.34-2.28c0-1.02,.66-1.59,1.8-1.97l.34,.74c-1.03,.34-1.36,.67-1.36,1.24,0,.91,1.26,1.45,3.56,1.45s3.55-.56,3.55-1.48c0-.61-.42-.96-1.35-1.29l.35-.68c1.07,.35,1.78,.94,1.78,2.02"/><path class="d" d="M10.93,724.45c0,1.55-1.61,2.34-4.34,2.34s-4.34-.8-4.34-2.35,1.61-2.35,4.34-2.35,4.34,.81,4.34,2.36m-7.89,.01c0,.92,1.2,1.5,3.56,1.5s3.55-.61,3.55-1.54-1.2-1.52-3.55-1.52-3.56,.63-3.56,1.55"/><path class="d" d="M10.79,717.32l-4.61,1.97c-.7,.29-1.54,.65-2.07,.85,.32,0,1.13-.01,1.64-.01h5.05v.78H2.38v-.8l4.4-1.87c.76-.32,1.6-.67,2.06-.86-.31,.01-1.13,.02-1.63,.02H2.38v-.78H10.79v.69Z"/><path class="d" d="M10.93,713.54c0,1.03-.62,1.67-1.67,2.02l-.35-.75c.82-.32,1.24-.69,1.24-1.29,0-.7-.47-1.14-1.17-1.14-.82,0-1.48,.34-2.26,1.42-.84,1.16-1.46,1.59-2.56,1.59s-1.91-.72-1.91-1.82c0-1.01,.54-1.52,1.41-1.92l.41,.7c-.66,.33-1.03,.65-1.03,1.25,0,.66,.54,.96,1.07,.96,.68,0,1.15-.21,1.92-1.28,.88-1.25,1.7-1.73,2.86-1.73s2.04,.75,2.04,1.99"/><path class="d" d="M10.93,708.25c0,1.35-.96,2.13-2.64,2.13H2.38v-.81h5.88c1.21,0,1.88-.47,1.88-1.35s-.66-1.29-1.88-1.29H2.38v-.82h5.89c1.68,0,2.66,.79,2.66,2.15"/><path class="d" d="M10.79,700.3H5.76c-.44,0-1.12-.01-1.48-.01,.5,.08,1.03,.23,1.67,.41l5.08,1.44-5.08,1.43c-.64,.18-1.15,.3-1.67,.4,.36,0,1-.01,1.48-.01h5.03v.76H2.38v-.9l4.42-1.25c.73-.21,1.43-.38,1.99-.43-.56-.07-1.26-.25-1.99-.46l-4.42-1.25v-.89H10.79v.76Z"/><path class="d" d="M10.93,696.01c0,1.55-1.61,2.34-4.34,2.34s-4.34-.8-4.34-2.35,1.61-2.35,4.34-2.35,4.34,.81,4.34,2.36m-7.89,.01c0,.92,1.2,1.51,3.56,1.51s3.55-.61,3.55-1.54-1.2-1.52-3.55-1.52-3.56,.63-3.56,1.55"/><path class="d" d="M10.79,688.76v1.47H2.38v-1.6c0-1.74,1.43-2.61,4.15-2.61,2.94,0,4.26,1.03,4.26,2.74m-7.63-.09v.74h6.85v-.73c0-1.13-.95-1.83-3.45-1.83-2.29,0-3.4,.62-3.4,1.82"/><polygon class="d" points="10.79 684.85 2.38 684.85 2.38 681.33 3.16 681.33 3.16 684.03 5.9 684.03 5.9 682.33 6.7 682.33 6.7 684.03 10.01 684.03 10.01 681.19 10.79 681.19 10.79 684.85"/><path class="d" d="M10.79,674.33l-2.19,.48v2.15l2.19,.49v.81l-8.41-1.95v-.87l8.41-1.95v.83Zm-5.07,1.12c-.79,.18-1.67,.35-2.29,.45,.62,.08,1.53,.27,2.31,.45l2.09,.46v-1.81l-2.1,.46Z"/><polygon class="d" points="10.79 672.45 2.38 672.45 2.38 671.63 10.01 671.63 10.01 669.01 10.79 669.01 10.79 672.45"/><path class="d" d="M10.93,666.16c0,1.52-1.64,2.26-4.34,2.26s-4.34-.79-4.34-2.28c0-1.02,.66-1.59,1.8-1.97l.34,.74c-1.03,.34-1.36,.67-1.36,1.25,0,.9,1.26,1.45,3.56,1.45s3.55-.56,3.55-1.48c0-.61-.42-.96-1.35-1.29l.35-.68c1.07,.35,1.78,.94,1.78,2.02"/><polygon class="d" points="10.79 654.02 6.73 654.02 6.73 656.67 10.79 656.67 10.79 657.49 2.38 657.49 2.38 656.67 5.95 656.67 5.95 654.02 2.38 654.02 2.38 653.21 10.79 653.21 10.79 654.02"/><path class="d" d="M10.93,649.68c0,1.55-1.61,2.34-4.34,2.34s-4.34-.8-4.34-2.35,1.61-2.35,4.34-2.35,4.34,.81,4.34,2.36m-7.89,.01c0,.92,1.2,1.5,3.56,1.5s3.55-.61,3.55-1.54-1.2-1.52-3.55-1.52-3.56,.63-3.56,1.55"/><path class="d" d="M10.93,661.07c0,1.55-1.61,2.34-4.34,2.34s-4.34-.8-4.34-2.35,1.61-2.35,4.34-2.35,4.34,.81,4.34,2.36m-7.89,.01c0,.92,1.2,1.5,3.56,1.5s3.55-.61,3.55-1.54-1.2-1.52-3.55-1.52-3.56,.63-3.56,1.55"/><polygon class="d" points="10.79 646.14 2.38 646.14 2.38 645.32 10.01 645.32 10.01 642.7 10.79 642.7 10.79 646.14"/><path class="d" d="M7.17,637.63v.97h3.63v.82H2.38v-1.9c0-1.21,.72-2.13,2.33-2.13s2.45,1,2.45,2.23m-4-.07v1.04h3.22v-1.01c0-.89-.56-1.38-1.62-1.38s-1.6,.48-1.6,1.34"/><path class="d" d="M10.93,632.3c0,1.35-.96,2.13-2.64,2.13H2.38v-.81h5.88c1.21,0,1.88-.47,1.88-1.35s-.66-1.29-1.88-1.29H2.38v-.82h5.89c1.68,0,2.66,.79,2.66,2.15"/><polygon class="d" points="10.79 628.77 2.38 628.77 2.38 625.25 3.16 625.25 3.16 627.94 5.9 627.94 5.9 626.25 6.7 626.25 6.7 627.94 10.01 627.94 10.01 625.11 10.79 625.11 10.79 628.77"/><path class="d" d="M10.79,622.58v1.47H2.38v-1.6c0-1.74,1.43-2.61,4.15-2.61,2.94,0,4.26,1.03,4.26,2.74m-7.63-.09v.74h6.85v-.73c0-1.13-.95-1.83-3.45-1.83-2.29,0-3.4,.62-3.4,1.82"/><polygon class="d" points="10.79 618.67 2.38 618.67 2.38 615.15 3.16 615.15 3.16 617.84 5.9 617.84 5.9 616.15 6.7 616.15 6.7 617.84 10.01 617.84 10.01 615.01 10.79 615.01 10.79 618.67"/><path class="d" d="M7.17,609.91v.98h3.63v.82H2.38v-1.9c0-1.21,.72-2.13,2.33-2.13s2.45,1,2.45,2.23m-4-.07v1.05h3.22v-1.01c0-.89-.56-1.37-1.62-1.37s-1.6,.48-1.6,1.34"/><polygon class="d" points="10.79 606.68 2.38 606.68 2.38 603.17 3.16 603.17 3.16 605.86 5.9 605.86 5.9 604.17 6.7 604.17 6.7 605.86 10.01 605.86 10.01 603.03 10.79 603.03 10.79 606.68"/><path class="d" d="M10.79,598.77l-3.82,1.23c0,.1,0,.99,0,1.14h3.81v.82H2.38v-1.97c0-1.19,.72-2.1,2.25-2.1,1.11,0,1.82,.51,2.14,1.27l4.02-1.29v.91Zm-7.63,1.26v1.12h3.06v-1.07c0-.89-.54-1.36-1.55-1.36s-1.51,.48-1.51,1.32"/><path class="d" d="M10.93,595.49c0,1.1-.78,1.67-2.08,1.93l-.2-.79c1.04-.21,1.5-.54,1.5-1.17,0-.74-.54-1.09-1.82-1.09H2.38v-.82h5.97c1.7,0,2.57,.69,2.57,1.95"/><path class="d" d="M10.93,590.05c0,1.35-.96,2.13-2.64,2.13H2.38v-.81h5.88c1.21,0,1.88-.47,1.88-1.35s-.66-1.29-1.88-1.29H2.38v-.82h5.89c1.68,0,2.66,.79,2.66,2.15"/><path class="d" d="M10.79,585.05v1.47H2.38v-1.6c0-1.74,1.43-2.61,4.15-2.61,2.94,0,4.26,1.03,4.26,2.74m-7.63-.09v.74h6.85v-.73c0-1.13-.95-1.84-3.45-1.84-2.29,0-3.4,.62-3.4,1.82"/><rect class="d" x="2.38" y="580.25" width="8.41" height=".82"/><path class="d" d="M10.93,576.76c0,1.51-1.64,2.26-4.34,2.26s-4.34-.79-4.34-2.28c0-1.02,.66-1.59,1.8-1.98l.34,.74c-1.03,.34-1.36,.67-1.36,1.25,0,.9,1.26,1.45,3.56,1.45s3.55-.56,3.55-1.48c0-.61-.42-.97-1.35-1.29l.35-.68c1.07,.35,1.78,.94,1.78,2.02"/><path class="d" d="M10.79,570.2l-2.19,.48v2.15l2.19,.49v.81l-8.41-1.95v-.87l8.41-1.95v.84Zm-5.07,1.12c-.79,.18-1.67,.35-2.29,.45,.62,.08,1.53,.27,2.31,.45l2.09,.46v-1.81l-2.1,.46Z"/><path class="d" d="M10.79,565.13l-3.82,1.23c0,.11,0,.99,0,1.14h3.81v.82H2.38v-1.97c0-1.19,.72-2.11,2.25-2.11,1.11,0,1.82,.51,2.14,1.27l4.02-1.29v.9Zm-7.63,1.26v1.12h3.06v-1.07c0-.89-.54-1.36-1.55-1.36s-1.51,.48-1.51,1.32"/><path class="d" d="M10.93,559.18c0,1.03-.62,1.67-1.67,2.02l-.35-.75c.82-.31,1.24-.69,1.24-1.29,0-.71-.47-1.14-1.17-1.14-.82,0-1.48,.34-2.26,1.43-.84,1.16-1.46,1.58-2.56,1.58s-1.91-.71-1.91-1.82c0-1.01,.54-1.51,1.41-1.91l.41,.71c-.66,.33-1.03,.64-1.03,1.25,0,.66,.54,.96,1.07,.96,.68,0,1.15-.21,1.92-1.28,.88-1.25,1.7-1.73,2.86-1.73s2.04,.75,2.04,1.99"/><path class="d" d="M10.93,553.9c0,1.35-.96,2.13-2.64,2.13H2.38v-.81h5.88c1.21,0,1.88-.47,1.88-1.35s-.66-1.29-1.88-1.29H2.38v-.82h5.89c1.68,0,2.66,.79,2.66,2.15"/><path class="d" d="M10.93,546.45c0,1.03-.62,1.67-1.67,2.02l-.35-.75c.82-.31,1.24-.69,1.24-1.29,0-.71-.47-1.14-1.17-1.14-.82,0-1.48,.34-2.26,1.42-.84,1.16-1.46,1.58-2.56,1.58s-1.91-.71-1.91-1.82c0-1.01,.54-1.51,1.41-1.91l.41,.71c-.66,.33-1.03,.64-1.03,1.25,0,.66,.54,.96,1.07,.96,.68,0,1.15-.21,1.92-1.28,.88-1.25,1.7-1.73,2.86-1.73s2.04,.75,2.04,1.99"/><path class="d" d="M10.79,539.84l-2.19,.48v2.15l2.19,.49v.81l-8.41-1.95v-.87l8.41-1.95v.84Zm-5.07,1.12c-.79,.18-1.67,.35-2.29,.45,.62,.08,1.53,.27,2.31,.45l2.09,.46v-1.81l-2.1,.46Z"/><polygon class="d" points="10.79 537.96 2.38 537.96 2.38 537.14 10.01 537.14 10.01 534.52 10.79 534.52 10.79 537.96"/><path class="d" d="M10.93,531.6c0,1.35-.96,2.13-2.64,2.13H2.38v-.81h5.88c1.21,0,1.88-.47,1.88-1.35s-.66-1.29-1.88-1.29H2.38v-.82h5.89c1.68,0,2.66,.79,2.66,2.15"/><path class="d" d="M10.79,526.6v1.47H2.38v-1.6c0-1.74,1.43-2.61,4.15-2.61,2.94,0,4.26,1.04,4.26,2.74m-7.63-.1v.74h6.85v-.73c0-1.13-.95-1.83-3.45-1.83-2.29,0-3.4,.62-3.4,1.82"/><path class="d" d="M10.93,522.78c0,.34-.28,.6-.62,.6s-.64-.26-.64-.6,.29-.6,.64-.6,.62,.25,.62,.6"/><path class="d" d="M10.79,514.47H5.76c-.44,0-1.12-.01-1.48-.01,.5,.08,1.03,.23,1.67,.41l5.08,1.43-5.08,1.43c-.64,.18-1.15,.31-1.67,.4,.36,0,1-.01,1.48-.01h5.03v.77H2.38v-.9l4.42-1.25c.73-.21,1.43-.38,1.99-.43-.56-.07-1.26-.25-1.99-.46l-4.42-1.25v-.89H10.79v.77Z"/><rect class="d" x="2.38" y="511.4" width="8.41" height=".82"/><path class="d" d="M10.79,506.34l-4.61,1.98c-.7,.29-1.54,.64-2.07,.84,.32,0,1.13,0,1.64,0h5.05v.77H2.38v-.8l4.4-1.87c.76-.32,1.6-.67,2.06-.86-.31,.01-1.13,.03-1.63,.03H2.38v-.78H10.79v.69Z"/><rect class="d" x="2.38" y="503.34" width="8.41" height=".82"/><path class="d" d="M10.93,500.2c0,1.03-.62,1.67-1.67,2.02l-.35-.75c.82-.31,1.24-.69,1.24-1.29,0-.71-.47-1.14-1.17-1.14-.82,0-1.48,.34-2.26,1.43-.84,1.16-1.46,1.58-2.56,1.58s-1.91-.71-1.91-1.82c0-1.01,.54-1.51,1.41-1.91l.41,.71c-.66,.33-1.03,.64-1.03,1.25,0,.66,.54,.96,1.07,.96,.68,0,1.15-.21,1.92-1.28,.88-1.25,1.7-1.73,2.86-1.73s2.04,.75,2.04,1.99"/><polygon class="d" points="3.15 495.16 10.79 495.16 10.79 495.97 3.15 495.97 3.15 497.63 2.38 497.63 2.38 493.49 3.15 493.49 3.15 495.16"/><polygon class="d" points="10.79 492.52 2.38 492.52 2.38 489.01 3.16 489.01 3.16 491.7 5.9 491.7 5.9 490.01 6.7 490.01 6.7 491.7 10.01 491.7 10.01 488.86 10.79 488.86 10.79 492.52"/><path class="d" d="M10.79,484.6l-3.82,1.23c0,.11,0,.99,0,1.14h3.81v.82H2.38v-1.97c0-1.19,.72-2.11,2.25-2.11,1.11,0,1.82,.51,2.14,1.27l4.02-1.29v.9Zm-7.63,1.26v1.12h3.06v-1.07c0-.89-.54-1.36-1.55-1.36s-1.51,.48-1.51,1.32"/><rect class="d" x="2.38" y="481.68" width="8.41" height=".82"/><path class="d" d="M10.93,478.1c0,1.55-1.61,2.34-4.34,2.34s-4.34-.8-4.34-2.35,1.61-2.35,4.34-2.35,4.34,.81,4.34,2.37m-7.89,.01c0,.91,1.2,1.5,3.56,1.5s3.55-.61,3.55-1.54-1.2-1.52-3.55-1.52-3.56,.62-3.56,1.55"/><path class="d" d="M10.79,470.85v1.47H2.38v-1.6c0-1.74,1.43-2.61,4.15-2.61,2.94,0,4.26,1.04,4.26,2.74m-7.63-.1v.74h6.85v-.73c0-1.13-.95-1.83-3.45-1.83-2.29,0-3.4,.62-3.4,1.82"/><polygon class="d" points="10.79 466.93 2.38 466.93 2.38 463.42 3.16 463.42 3.16 466.11 5.9 466.11 5.9 464.42 6.7 464.42 6.7 466.11 10.01 466.11 10.01 463.28 10.79 463.28 10.79 466.93"/><path class="d" d="M10.93,458.31c0,1.03-.62,1.67-1.67,2.02l-.35-.75c.82-.32,1.24-.69,1.24-1.29,0-.71-.47-1.14-1.17-1.14-.82,0-1.48,.34-2.26,1.42-.84,1.16-1.46,1.58-2.56,1.58s-1.91-.71-1.91-1.82c0-1.01,.54-1.51,1.41-1.91l.41,.71c-.66,.33-1.03,.64-1.03,1.25,0,.66,.54,.96,1.07,.96,.68,0,1.15-.21,1.92-1.28,.88-1.25,1.7-1.73,2.86-1.73s2.04,.75,2.04,1.99"/><path class="d" d="M10.79,451.69l-2.19,.48v2.15l2.19,.49v.81l-8.41-1.95v-.87l8.41-1.95v.84Zm-5.07,1.12c-.79,.18-1.67,.35-2.29,.45,.62,.08,1.53,.27,2.31,.45l2.09,.46v-1.81l-2.1,.46Z"/><polygon class="d" points="10.79 449.81 2.38 449.81 2.38 448.99 10.01 448.99 10.01 446.37 10.79 446.37 10.79 449.81"/><path class="d" d="M10.93,443.47c0,1.35-.96,2.13-2.64,2.13H2.38v-.81h5.88c1.21,0,1.88-.47,1.88-1.35s-.66-1.29-1.88-1.29H2.38v-.82h5.89c1.68,0,2.66,.79,2.66,2.15"/><path class="d" d="M10.79,438.46v1.47H2.38v-1.6c0-1.74,1.43-2.61,4.15-2.61,2.94,0,4.26,1.04,4.26,2.74m-7.63-.1v.74h6.85v-.73c0-1.13-.95-1.83-3.45-1.83-2.29,0-3.4,.62-3.4,1.82"/><path class="d" d="M7.17,430.51v.97h3.63v.82H2.38v-1.91c0-1.21,.72-2.13,2.33-2.13s2.45,1,2.45,2.24m-4-.07v1.04h3.22v-1.01c0-.89-.56-1.38-1.62-1.38s-1.6,.48-1.6,1.34"/><path class="d" d="M10.93,425.18c0,1.35-.96,2.13-2.64,2.13H2.38v-.81h5.88c1.21,0,1.88-.47,1.88-1.35s-.66-1.29-1.88-1.29H2.38v-.82h5.89c1.68,0,2.66,.79,2.66,2.15m-8.9-.23v.6l-1.92-1.01v-1.11l1.92,1.52Z"/><path class="d" d="M10.79,419.79v1.86H2.38v-1.86c0-1.25,.78-1.95,2.13-1.95,1.01,0,1.53,.43,1.8,1,.27-.65,.78-1.23,2.02-1.23,1.71,0,2.47,.89,2.47,2.19m-7.63,.03v1h2.78v-.96c0-.86-.61-1.2-1.41-1.2-.89,0-1.37,.4-1.37,1.16m3.56,.02v.97h3.29v-1.08c0-.89-.56-1.32-1.63-1.32s-1.66,.54-1.66,1.43"/><polygon class="d" points="10.79 416.48 2.38 416.48 2.38 415.65 10.01 415.65 10.01 413.03 10.79 413.03 10.79 416.48"/><rect class="d" x="2.38" y="411.12" width="8.41" height=".82"/><path class="d" d="M10.93,407.62c0,1.52-1.64,2.26-4.34,2.26s-4.34-.79-4.34-2.28c0-1.02,.66-1.59,1.8-1.98l.34,.74c-1.03,.34-1.36,.67-1.36,1.25,0,.9,1.26,1.45,3.56,1.45s3.55-.57,3.55-1.48c0-.61-.42-.97-1.35-1.29l.35-.68c1.07,.35,1.78,.94,1.78,2.02"/><path class="d" d="M10.79,401.07l-2.19,.48v2.15l2.19,.49v.81l-8.41-1.95v-.87l8.41-1.95v.84Zm-5.07,1.12c-.79,.18-1.67,.36-2.29,.45,.62,.08,1.53,.27,2.31,.45l2.09,.46v-1.81l-2.1,.46Z"/><path class="d" d="M10.79,395.48v1.47H2.38v-1.6c0-1.74,1.43-2.61,4.15-2.61,2.94,0,4.26,1.04,4.26,2.74m-7.63-.1v.74h6.85v-.73c0-1.13-.95-1.83-3.45-1.83-2.29,0-3.4,.62-3.4,1.82"/><polygon class="d" points="10.79 391.57 2.38 391.57 2.38 388.06 3.16 388.06 3.16 390.75 5.9 390.75 5.9 389.06 6.7 389.06 6.7 390.75 10.01 390.75 10.01 387.91 10.79 387.91 10.79 391.57"/><polygon class="d" points="10.79 386.85 2.38 386.85 2.38 386.03 10.01 386.03 10.01 383.41 10.79 383.41 10.79 386.85"/><polygon class="d" points="10.79 380.14 2.38 380.14 2.38 376.62 3.16 376.62 3.16 379.31 5.9 379.31 5.9 377.62 6.7 377.62 6.7 379.31 10.01 379.31 10.01 376.48 10.79 376.48 10.79 380.14"/><path class="d" d="M10.93,373.62c0,1.52-1.64,2.26-4.34,2.26s-4.34-.79-4.34-2.28c0-1.02,.66-1.59,1.8-1.98l.34,.74c-1.03,.34-1.36,.67-1.36,1.25,0,.9,1.26,1.44,3.56,1.44s3.55-.56,3.55-1.48c0-.61-.42-.96-1.35-1.29l.35-.68c1.07,.35,1.78,.94,1.78,2.02"/><path class="d" d="M10.93,368.5c0,1.35-.96,2.13-2.64,2.13H2.38v-.81h5.88c1.21,0,1.88-.47,1.88-1.35s-.66-1.29-1.88-1.29H2.38v-.82h5.89c1.68,0,2.66,.79,2.66,2.15"/><path class="d" d="M10.79,361.58l-2.19,.48v2.15l2.19,.49v.81l-8.41-1.95v-.87l8.41-1.95v.84Zm-5.07,1.12c-.79,.18-1.67,.36-2.29,.45,.62,.08,1.53,.27,2.31,.45l2.09,.46v-1.81l-2.1,.46Z"/><path class="d" d="M10.79,358.23v1.47H2.38v-1.6c0-1.74,1.43-2.61,4.15-2.61,2.94,0,4.26,1.04,4.26,2.74m-7.63-.1v.74h6.85v-.73c0-1.13-.95-1.83-3.45-1.83-2.29,0-3.4,.62-3.4,1.82"/><path class="d" d="M10.93,352.22c0,1.55-1.61,2.34-4.34,2.34s-4.34-.8-4.34-2.35,1.61-2.35,4.34-2.35,4.34,.81,4.34,2.37m-7.89,.01c0,.91,1.2,1.5,3.56,1.5s3.55-.61,3.55-1.54-1.2-1.52-3.55-1.52-3.56,.62-3.56,1.55"/><path class="d" d="M10.79,345.47l-3.82,1.23c0,.11,0,.99,0,1.14h3.81v.82H2.38v-1.97c0-1.19,.72-2.11,2.25-2.11,1.11,0,1.82,.51,2.14,1.27l4.02-1.29v.9Zm-7.63,1.26v1.12h3.06v-1.07c0-.89-.54-1.36-1.55-1.36s-1.51,.48-1.51,1.32"/><path class="d" d="M10.93,343.3c0,.34-.28,.6-.62,.6s-.64-.26-.64-.6,.29-.6,.64-.6,.62,.25,.62,.6"/></g></g></g></g></svg>