<?xml version="1.0" encoding="UTF-8"?><svg xmlns="http://www.w3.org/2000/svg" viewBox="0 0 668.8 527.05"><defs><style>.d{fill:#fff;}</style></defs><g id="a"/><g id="b"><g id="c"><g><g><path class="d" d="M77.15,440.22v14.77c0,18.18-7.3,28.08-22.18,28.08h-7.03v42.69h-14.88v-113.62h21.91c14.88,0,22.18,9.9,22.18,28.08Zm-29.21-11.85v38.47h7.03c4.73,0,7.3-2.6,7.3-10.71v-17.04c0-8.12-2.57-10.71-7.3-10.71h-7.03Z"/><path class="d" d="M130.44,525.75h-15.01l-2.57-20.61h-18.26l-2.57,20.61h-13.66l15.15-113.62h21.78l15.15,113.62Zm-33.95-36.03h14.34l-7.17-57.46-7.17,57.46Z"/><path class="d" d="M167.77,525.75c-.81-2.92-1.35-4.71-1.35-13.96v-17.85c0-10.55-2.98-14.45-9.74-14.45h-5.14v46.26h-14.88v-113.62h22.45c15.42,0,22.05,8.6,22.05,26.13v8.93c0,11.69-3.11,19.31-9.74,23.05,7.44,3.73,9.87,12.34,9.87,24.18v17.53c0,5.52,.14,9.58,1.62,13.8h-15.15Zm-16.23-97.38v34.9h5.82c5.55,0,8.93-2.92,8.93-12.01v-11.2c0-8.12-2.3-11.69-7.57-11.69h-7.17Z"/><path class="d" d="M186.02,412.14h45.99v16.23h-15.55v97.38h-14.88v-97.38h-15.55v-16.23Z"/><path class="d" d="M237.82,412.14h14.88v113.62h-14.88v-113.62Z"/><path class="d" d="M305.99,483.39v15.09c0,18.18-7.57,28.57-22.18,28.57s-22.18-10.39-22.18-28.57v-59.08c0-18.18,7.57-28.57,22.18-28.57s22.18,10.39,22.18,28.57v11.04h-14.07v-12.17c0-8.12-2.98-11.2-7.71-11.2s-7.71,3.08-7.71,11.2v61.35c0,8.12,2.98,11.04,7.71,11.04s7.71-2.92,7.71-11.04v-16.23h14.07Z"/><path class="d" d="M314.37,412.14h14.88v113.62h-14.88v-113.62Z"/><path class="d" d="M383.48,440.22v14.77c0,18.18-7.3,28.08-22.18,28.08h-7.03v42.69h-14.88v-113.62h21.91c14.88,0,22.18,9.9,22.18,28.08Zm-29.21-11.85v38.47h7.03c4.73,0,7.3-2.6,7.3-10.71v-17.04c0-8.12-2.57-10.71-7.3-10.71h-7.03Z"/><path class="d" d="M436.77,525.75h-15.01l-2.57-20.61h-18.26l-2.57,20.61h-13.66l15.15-113.62h21.78l15.15,113.62Zm-33.95-36.03h14.34l-7.17-57.46-7.17,57.46Z"/><path class="d" d="M456.25,443.46v82.29h-13.39v-113.62h18.67l15.28,68.01v-68.01h13.25v113.62h-15.28l-18.53-82.29Z"/><path class="d" d="M500.07,412.14h23.53c14.88,0,22.18,9.9,22.18,28.08v57.46c0,18.18-7.3,28.08-22.18,28.08h-23.53v-113.62Zm14.88,16.23v81.15h8.39c4.73,0,7.57-2.92,7.57-11.04v-59.08c0-8.12-2.84-11.04-7.57-11.04h-8.39Z"/><path class="d" d="M553.35,439.41c0-18.18,7.98-28.57,22.59-28.57s22.59,10.39,22.59,28.57v59.08c0,18.18-7.98,28.57-22.59,28.57s-22.59-10.39-22.59-28.57v-59.08Zm14.88,60.22c0,8.12,2.97,11.2,7.71,11.2s7.71-3.08,7.71-11.2v-61.35c0-8.12-2.97-11.2-7.71-11.2s-7.71,3.08-7.71,11.2v61.35Z"/><path class="d" d="M609.35,500.6l-1.89-41.06v-47.39h14.88v47.39l-1.89,41.06h-11.09Zm12.71,7.95v17.2h-14.34v-17.2h14.34Z"/></g><g><path class="d" d="M114.72,377.89H0V213.12H112.5v48.94H63.78v11.07h43.41v43.63H63.78v11.07h50.94v50.05Z"/><path class="d" d="M122.91,324.07h60.46c.15,3.84,.77,6.68,1.88,8.53,1.11,1.85,3.06,2.77,5.87,2.77,1.62,0,2.91-.52,3.88-1.55,.96-1.03,1.44-2.29,1.44-3.77,0-1.77-.41-3.17-1.22-4.21-.81-1.03-2.66-2.25-5.54-3.65-2.88-1.4-6.61-3.13-11.18-5.2l-6.87-3.1c-13.29-4.57-23.4-9.26-30.34-14.06-6.94-4.8-11.67-10.15-14.17-16.06-2.51-5.9-3.84-13.29-3.99-22.15v-.22c0-16.53,5.9-29.38,17.72-38.53,11.81-9.15,28.42-13.73,49.83-13.73s38.13,5.09,49.27,15.28c11.15,10.19,16.57,24.66,16.28,43.41h-58.02c0-4.28-.66-7.31-1.99-9.08-1.33-1.77-3.25-2.66-5.76-2.66-3.4,0-5.09,1.77-5.09,5.31v.22c0,3.84,4.28,7.31,12.84,10.41,16.53,5.17,29.19,10.52,37.98,16.06,8.78,5.54,14.84,11.59,18.16,18.16,3.32,6.57,4.98,14.58,4.98,24.03,0,16.39-6.17,29.12-18.49,38.2-12.33,9.08-28.9,13.62-49.72,13.62-45.62,0-68.36-19.34-68.21-58.02Z"/><path class="d" d="M356.99,377.89h-63.56v-113.39h-28.35v-51.38h120.47v51.38h-28.57v113.39Z"/><path class="d" d="M533.71,377.89h-65.77l-2.44-20.15h-23.25l-2.66,20.15h-65.55l36.32-164.77h86.59l36.76,164.77Zm-48.72-209.94l-32.78,35.65h-31.67l15.06-35.65h49.39Zm-33,112.5l-4.21,32.55h11.96l-3.99-32.55-1.77-15.28h-.44l-1.55,15.28Z"/><path class="d" d="M532.38,324.07h60.46c.15,3.84,.78,6.68,1.88,8.53,1.11,1.85,3.06,2.77,5.87,2.77,1.62,0,2.91-.52,3.88-1.55,.96-1.03,1.44-2.29,1.44-3.77,0-1.77-.41-3.17-1.22-4.21-.81-1.03-2.66-2.25-5.54-3.65-2.88-1.4-6.61-3.13-11.18-5.2l-6.87-3.1c-13.29-4.57-23.4-9.26-30.34-14.06-6.94-4.8-11.67-10.15-14.17-16.06-2.51-5.9-3.84-13.29-3.99-22.15v-.22c0-16.53,5.9-29.38,17.72-38.53,11.81-9.15,28.42-13.73,49.83-13.73s38.12,5.09,49.27,15.28c11.15,10.19,16.57,24.66,16.28,43.41h-58.02c0-4.28-.66-7.31-1.99-9.08-1.33-1.77-3.25-2.66-5.76-2.66-3.4,0-5.09,1.77-5.09,5.31v.22c0,3.84,4.28,7.31,12.84,10.41,16.53,5.17,29.19,10.52,37.98,16.06,8.78,5.54,14.84,11.59,18.16,18.16,3.32,6.57,4.98,14.58,4.98,24.03,0,16.39-6.17,29.12-18.49,38.2-12.33,9.08-28.9,13.62-49.72,13.62-45.62,0-68.36-19.34-68.21-58.02Z"/></g><path class="d" d="M156.81,61.96l2.01,36.33v41.93h-15.8v-41.93l2.01-36.33h11.78Zm-13.5-7.04v-15.22h15.22v15.22h-15.22Z"/><g><path class="d" d="M283.56,164.77h-63.78v-42.74L174.82,0h67.32l8.64,56.03,.89,8.42h.22l.89-8.42L261.19,0h67.32l-44.96,122.02v42.74Z"/><path class="d" d="M471.8,164.77h-65.77l-2.44-20.15h-23.25l-2.66,20.15h-65.55L348.45,0h86.59l36.76,164.77Zm-81.72-97.44l-4.21,32.55h11.96l-3.99-32.55-1.77-15.28h-.44l-1.55,15.28Z"/></g></g></g></g></svg>