<?xml version="1.0" encoding="UTF-8"?><svg xmlns="http://www.w3.org/2000/svg" viewBox="0 0 595.93 497.71"><defs><style>.d{fill:#fff;}.e{fill:#d60000;}</style></defs><g id="a"/><g id="b"><g id="c"><g><g><path class="e" d="M68.74,420.34v13.16c0,16.2-6.51,25.02-19.76,25.02h-6.27v38.04h-13.26v-101.24h19.52c13.26,0,19.76,8.82,19.76,25.02Zm-26.03-10.56v34.28h6.27c4.22,0,6.51-2.31,6.51-9.54v-15.19c0-7.23-2.29-9.54-6.51-9.54h-6.27Z"/><path class="e" d="M116.22,496.56h-13.38l-2.29-18.37h-16.27l-2.29,18.37h-12.17l13.5-101.24h19.4l13.5,101.24Zm-30.25-32.11h12.77l-6.39-51.2-6.39,51.2Z"/><path class="e" d="M149.49,496.56c-.72-2.6-1.21-4.19-1.21-12.44v-15.91c0-9.4-2.65-12.87-8.68-12.87h-4.58v41.22h-13.26v-101.24h20c13.74,0,19.64,7.67,19.64,23.28v7.96c0,10.41-2.77,17.21-8.68,20.54,6.63,3.33,8.8,10.99,8.8,21.55v15.62c0,4.92,.12,8.53,1.45,12.29h-13.5Zm-14.46-86.77v31.09h5.18c4.94,0,7.95-2.6,7.95-10.7v-9.98c0-7.23-2.05-10.41-6.75-10.41h-6.39Z"/><path class="e" d="M165.76,395.32h40.97v14.46h-13.86v86.77h-13.26v-86.77h-13.86v-14.46Z"/><path class="e" d="M211.91,395.32h13.26v101.24h-13.26v-101.24Z"/><path class="e" d="M272.65,458.81v13.45c0,16.2-6.75,25.45-19.76,25.45s-19.76-9.26-19.76-25.45v-52.64c0-16.2,6.75-25.45,19.76-25.45s19.76,9.26,19.76,25.45v9.83h-12.53v-10.85c0-7.23-2.65-9.98-6.87-9.98s-6.87,2.75-6.87,9.98v54.67c0,7.23,2.65,9.83,6.87,9.83s6.87-2.6,6.87-9.83v-14.46h12.53Z"/><path class="e" d="M280.12,395.32h13.26v101.24h-13.26v-101.24Z"/><path class="e" d="M341.7,420.34v13.16c0,16.2-6.51,25.02-19.76,25.02h-6.27v38.04h-13.26v-101.24h19.52c13.26,0,19.76,8.82,19.76,25.02Zm-26.03-10.56v34.28h6.27c4.22,0,6.51-2.31,6.51-9.54v-15.19c0-7.23-2.29-9.54-6.51-9.54h-6.27Z"/><path class="e" d="M389.18,496.56h-13.38l-2.29-18.37h-16.27l-2.29,18.37h-12.17l13.5-101.24h19.4l13.5,101.24Zm-30.25-32.11h12.77l-6.39-51.2-6.39,51.2Z"/><path class="e" d="M406.54,423.23v73.32h-11.93v-101.24h16.63l13.62,60.6v-60.6h11.81v101.24h-13.62l-16.51-73.32Z"/><path class="e" d="M445.58,395.32h20.97c13.26,0,19.76,8.82,19.76,25.02v51.2c0,16.2-6.51,25.02-19.76,25.02h-20.97v-101.24Zm13.26,14.46v72.31h7.47c4.22,0,6.75-2.6,6.75-9.83v-52.64c0-7.23-2.53-9.83-6.75-9.83h-7.47Z"/><path class="e" d="M493.07,419.62c0-16.2,7.11-25.45,20.13-25.45s20.13,9.26,20.13,25.45v52.64c0,16.2-7.11,25.45-20.13,25.45s-20.13-9.26-20.13-25.45v-52.64Zm13.26,53.66c0,7.23,2.65,9.98,6.87,9.98s6.87-2.75,6.87-9.98v-54.67c0-7.23-2.65-9.98-6.87-9.98s-6.87,2.75-6.87,9.98v54.67Z"/><path class="e" d="M542.96,474.14l-1.69-36.59v-42.23h13.26v42.23l-1.69,36.59h-9.88Zm11.33,7.09v15.33h-12.77v-15.33h12.77Z"/></g><g><path class="d" d="M102.22,335.72H0V188.9H100.24v43.61H56.83v9.87h38.68v38.87H56.83v9.87h45.39v44.6Z"/><path class="d" d="M109.52,287.77h53.87c.13,3.42,.69,5.95,1.68,7.6,.99,1.65,2.73,2.47,5.23,2.47,1.45,0,2.6-.46,3.45-1.38,.85-.92,1.28-2.04,1.28-3.35,0-1.58-.36-2.83-1.09-3.75-.72-.92-2.37-2-4.93-3.26-2.57-1.25-5.89-2.79-9.97-4.64l-6.12-2.76c-11.84-4.08-20.85-8.25-27.03-12.53-6.19-4.27-10.39-9.04-12.63-14.31-2.24-5.26-3.42-11.84-3.55-19.73v-.2c0-14.73,5.26-26.18,15.79-34.34,10.52-8.16,25.32-12.23,44.4-12.23s33.97,4.54,43.91,13.62c9.93,9.08,14.77,21.97,14.5,38.68h-51.7c0-3.81-.59-6.51-1.78-8.09s-2.9-2.37-5.13-2.37c-3.03,0-4.54,1.58-4.54,4.74v.2c0,3.42,3.81,6.51,11.45,9.27,14.73,4.61,26.01,9.37,33.84,14.31,7.83,4.93,13.22,10.33,16.18,16.18,2.96,5.85,4.44,12.99,4.44,21.41,0,14.6-5.49,25.95-16.48,34.04-10.99,8.09-25.75,12.14-44.3,12.14-40.65,0-60.91-17.23-60.78-51.7Z"/><path class="d" d="M318.09,335.72h-56.63v-101.03h-25.26v-45.78h107.35v45.78h-25.46v101.03Z"/><path class="d" d="M475.56,335.72h-58.61l-2.17-17.96h-20.72l-2.37,17.96h-58.41l32.36-146.81h77.16l32.76,146.81Zm-43.41-187.07l-29.2,31.77h-28.22l13.42-31.77h44Zm-29.4,100.24l-3.75,29.01h10.66l-3.55-29.01-1.58-13.62h-.4l-1.38,13.62Z"/><path class="d" d="M474.38,287.77h53.87c.13,3.42,.69,5.95,1.68,7.6,.99,1.65,2.73,2.47,5.23,2.47,1.45,0,2.6-.46,3.45-1.38,.85-.92,1.28-2.04,1.28-3.35,0-1.58-.36-2.83-1.09-3.75-.72-.92-2.37-2-4.93-3.26-2.57-1.25-5.89-2.79-9.97-4.64l-6.12-2.76c-11.84-4.08-20.85-8.25-27.03-12.53-6.19-4.27-10.39-9.04-12.63-14.31-2.24-5.26-3.42-11.84-3.55-19.73v-.2c0-14.73,5.26-26.18,15.79-34.34,10.52-8.16,25.32-12.23,44.4-12.23s33.97,4.54,43.91,13.62c9.93,9.08,14.77,21.97,14.5,38.68h-51.7c0-3.81-.59-6.51-1.78-8.09s-2.9-2.37-5.13-2.37c-3.03,0-4.54,1.58-4.54,4.74v.2c0,3.42,3.81,6.51,11.45,9.27,14.73,4.61,26.01,9.37,33.84,14.31,7.83,4.93,13.22,10.33,16.18,16.18,2.96,5.85,4.44,12.99,4.44,21.41,0,14.6-5.49,25.95-16.48,34.04-10.99,8.09-25.75,12.14-44.3,12.14-40.65,0-60.91-17.23-60.78-51.7Z"/></g><path class="d" d="M115.73,55.21l1.79,32.37v37.36h-14.07v-37.36l1.79-32.37h10.49Zm-12.03-6.27v-13.56h13.56v13.56h-13.56Z"/><g><path class="d" d="M228.66,146.81h-56.83v-38.08L131.77,0h59.99l7.7,49.92,.79,7.5h.2l.79-7.5L208.73,0h59.99l-40.06,108.73v38.08Z"/><path class="d" d="M396.4,146.81h-58.61l-2.17-17.96h-20.72l-2.37,17.96h-58.41L286.48,0h77.16l32.76,146.81Zm-72.82-86.83l-3.75,29.01h10.66l-3.55-29.01-1.58-13.62h-.4l-1.38,13.62Z"/></g></g></g></g></svg>